<svg width="48" height="48" viewBox="0 0 48 48" fill="none" xmlns="http://www.w3.org/2000/svg">
<circle cx="24" cy="24" r="24" fill="#ADCABD"/>
<path d="M33.0765 28.0142C31.8926 28.0142 30.9059 28.8238 30.61 29.9279H29.5987C29.204 29.9279 28.8587 29.609 28.8587 29.1919V25.6588H30.018C32.8298 25.6588 35.099 23.4015 35.099 20.6044C35.099 17.6111 32.4599 15.1821 29.3767 15.5992C28.1681 13.5627 25.9976 12.3359 23.6297 12.3359C20.7192 12.3359 18.2033 14.1761 17.2907 16.875C14.8982 16.8259 12.8756 18.8379 12.8756 21.2669C12.8756 23.6959 14.8489 25.6588 17.2907 25.6588H19.116V29.1919C19.116 29.5844 18.7953 29.9279 18.376 29.9279H17.3647C17.0687 28.8238 16.0821 28.0142 14.8982 28.0142C13.4923 28.0142 12.333 29.1428 12.333 30.5659C12.333 31.9644 13.4923 33.1176 14.8982 33.1176C16.0821 33.1176 17.0687 32.3079 17.3647 31.2038H18.376C19.4859 31.2038 20.3985 30.296 20.3985 29.1919V25.6588H23.3584V30.664C22.2484 30.9584 21.4345 31.9399 21.4345 33.1176C21.4345 34.5161 22.5691 35.6693 23.9997 35.6693C25.4056 35.6693 26.5649 34.5406 26.5649 33.1176C26.5649 31.9399 25.7509 30.9584 24.641 30.664V25.6588H27.6008V29.1919C27.6008 30.296 28.5134 31.2038 29.6234 31.2038H30.6346C30.9306 32.3079 31.9172 33.1176 33.1012 33.1176C34.5071 33.1176 35.6663 31.9889 35.6663 30.5659C35.617 29.1673 34.4824 28.0142 33.0765 28.0142ZM14.8735 31.8417C14.1829 31.8417 13.6156 31.2529 13.6156 30.5659C13.6156 29.8789 14.1829 29.29 14.8982 29.29C15.6135 29.29 16.1808 29.8543 16.1808 30.5659C16.1808 31.2774 15.5888 31.8417 14.8735 31.8417ZM25.2576 33.093C25.2576 33.8046 24.6903 34.3689 23.975 34.3689C23.2597 34.3689 22.6924 33.8046 22.6924 33.093C22.6924 32.3815 23.2597 31.8417 23.975 31.8417C24.6903 31.8417 25.2576 32.406 25.2576 33.093ZM14.1336 21.2669C14.1336 19.5494 15.5395 18.1509 17.2661 18.1509C17.3647 18.1509 17.4634 18.1754 17.6607 18.1999C17.9814 18.2245 18.2773 18.0282 18.3513 17.7092C18.9433 15.3047 21.1138 13.6118 23.605 13.6118C25.6522 13.6118 27.5021 14.7404 28.4394 16.5806C28.5627 16.8505 28.8587 16.9732 29.1547 16.9241C29.4507 16.8505 29.722 16.8259 29.9933 16.8259C32.0899 16.8259 33.7918 18.5189 33.7918 20.6044C33.7918 22.69 32.0899 24.3829 29.9933 24.3829H17.2661C15.5395 24.3829 14.1336 22.9844 14.1336 21.2669ZM33.0765 31.8417C32.3612 31.8417 31.7939 31.2774 31.7939 30.5659C31.7939 29.8543 32.3612 29.29 33.0765 29.29C33.7918 29.29 34.3591 29.8543 34.3591 30.5659C34.3591 31.2774 33.7671 31.8417 33.0765 31.8417Z" fill="#005932" stroke="#ADCABD" stroke-width="0.3"/>
<path d="M23.9754 16.6562C22.5448 16.6562 21.2129 17.196 20.2016 18.202C19.9549 18.4473 19.9549 18.8645 20.2016 19.1098C20.4482 19.3552 20.8676 19.3552 21.1142 19.1098C22.6435 17.5886 25.332 17.6131 26.8365 19.1098C26.9599 19.2325 27.1325 19.3061 27.2805 19.3061C27.4532 19.3061 27.6012 19.257 27.7245 19.1343C27.9711 18.889 27.9711 18.4964 27.7245 18.2265C26.7625 17.2206 25.3813 16.6562 23.9754 16.6562Z" fill="#005932" stroke="#ADCABD" stroke-width="0.3"/>
<path d="M21.7553 19.7427C21.5086 19.988 21.5086 20.4051 21.7553 20.6505C22.002 20.8958 22.4213 20.8958 22.6679 20.6505C23.3832 19.9389 24.5918 19.9389 25.3071 20.6505C25.4304 20.7732 25.6031 20.8468 25.7511 20.8468C25.8991 20.8468 26.0717 20.7732 26.195 20.6505C26.4417 20.4051 26.4417 19.988 26.195 19.7427C25.0111 18.5649 22.9392 18.5649 21.7553 19.7427Z" fill="#005932" stroke="#ADCABD" stroke-width="0.3"/>
<path d="M23.9746 22.9138C24.5059 22.9138 24.9366 22.4854 24.9366 21.9569C24.9366 21.4284 24.5059 21 23.9746 21C23.4434 21 23.0127 21.4284 23.0127 21.9569C23.0127 22.4854 23.4434 22.9138 23.9746 22.9138Z" fill="#005932" stroke="#ADCABD" stroke-width="0.3"/>
</svg>
