<svg width="48" height="48" viewBox="0 0 48 48" fill="none" xmlns="http://www.w3.org/2000/svg">
<circle cx="24" cy="24" r="24" fill="#ADCABD"/>
<path fill-rule="evenodd" clip-rule="evenodd" d="M24.75 33C24.75 33.8288 25.4213 34.5 26.25 34.5H33C33.8288 34.5 34.5 33.8288 34.5 33C34.5 32.0018 34.5 30.2482 34.5 29.25C34.5 28.4213 33.8288 27.75 33 27.75H26.25C25.4213 27.75 24.75 28.4213 24.75 29.25V33ZM23.25 23.25C23.25 22.4213 22.5787 21.75 21.75 21.75H15C14.1712 21.75 13.5 22.4213 13.5 23.25C13.5 25.2952 13.5 30.9548 13.5 33C13.5 33.8288 14.1712 34.5 15 34.5H21.75C22.5787 34.5 23.25 33.8288 23.25 33V23.25ZM26.25 29.25V33H33V29.25H26.25ZM15 33H21.75V23.25H15V33ZM24.75 24.75C24.75 25.5787 25.4213 26.25 26.25 26.25H33C33.8288 26.25 34.5 25.5787 34.5 24.75C34.5 22.7048 34.5 17.0452 34.5 15C34.5 14.1712 33.8288 13.5 33 13.5H26.25C25.4213 13.5 24.75 14.1712 24.75 15V24.75ZM26.25 24.75H33V15H26.25V24.75ZM23.25 15C23.25 14.1712 22.5787 13.5 21.75 13.5H15C14.1712 13.5 13.5 14.1712 13.5 15C13.5 15.9983 13.5 17.7517 13.5 18.75C13.5 19.5788 14.1712 20.25 15 20.25H21.75C22.5787 20.25 23.25 19.5788 23.25 18.75V15ZM15 15V18.75H21.75V15H15Z" fill="#005932" stroke="#ADCABD" stroke-width="0.4"/>
</svg>
