<svg width="48" height="48" viewBox="0 0 48 48" fill="none" xmlns="http://www.w3.org/2000/svg">
<circle cx="24" cy="24" r="24" fill="#005932"/>
<path fill-rule="evenodd" clip-rule="evenodd" d="M15.071 22.4455L19.6284 19.1464C19.4786 18.8088 19.4909 18.4209 19.6625 18.0928C19.8342 17.7656 20.1452 17.5343 20.5075 17.4641C20.8707 17.3939 21.2462 17.4926 21.5269 17.7325C21.8076 17.9724 21.964 18.328 21.9517 18.6969C21.9536 18.7329 21.9536 18.769 21.9517 18.8041L26.1952 20.273C26.5394 19.7666 27.2061 19.5959 27.7504 19.8747L32.6644 14.2448C32.3116 13.7431 32.3894 13.0556 32.8455 12.645C33.3016 12.2344 33.9929 12.2287 34.4557 12.6327C34.9175 13.0367 35.0066 13.7214 34.6615 14.2296C34.3163 14.7369 33.6468 14.9077 33.1015 14.626L28.1875 20.2484C28.3298 20.4504 28.4066 20.6912 28.4066 20.9378C28.4474 21.283 28.3383 21.6281 28.1088 21.887C27.8784 22.1469 27.5474 22.2948 27.2013 22.2948C26.8542 22.2948 26.5233 22.1469 26.2928 21.887C26.0634 21.6281 25.9543 21.283 25.9951 20.9378C25.9932 20.9027 25.9932 20.8667 25.9951 20.8316L21.7516 19.375C21.56 19.6604 21.2575 19.851 20.9171 19.9004C20.5767 19.9487 20.2324 19.852 19.9678 19.632L15.4112 22.9168C15.47 23.059 15.4994 23.2117 15.4984 23.3653C15.5003 23.9362 15.1049 24.4312 14.5483 24.5545C13.9916 24.6787 13.4236 24.399 13.1837 23.8812C12.9437 23.3644 13.0955 22.749 13.5497 22.4038C14.0039 22.0586 14.6367 22.0756 15.071 22.4455ZM13.0493 27.1187H15.5519C15.9492 27.1262 16.266 27.4506 16.266 27.8469V34.9383C16.266 35.3347 15.9492 35.658 15.5519 35.6666H13.0493C12.6519 35.6599 12.3333 35.3356 12.3333 34.9383V27.8346C12.3333 27.4325 12.6595 27.1063 13.0616 27.1063L13.0493 27.1187ZM19.5014 22.4579C19.0993 22.4579 18.7731 22.7841 18.7731 23.1862V34.9383C18.7731 35.3403 19.0993 35.6666 19.5014 35.6666H22.0048C22.4068 35.6666 22.7331 35.3403 22.7331 34.9383V23.1738C22.7331 22.7717 22.4068 22.4455 22.0048 22.4455L19.5014 22.4579ZM25.9535 24.6911H28.4569C28.8552 24.6911 29.1786 25.0097 29.1852 25.407V34.9384C29.1852 35.3404 28.859 35.6667 28.4569 35.6667H25.9421C25.5457 35.6581 25.2281 35.3348 25.229 34.9384V25.407C25.2347 25.0154 25.5505 24.6987 25.9421 24.6911H25.9535ZM32.3952 18.11C32.0007 18.11 31.6812 18.4296 31.6812 18.8241V34.9384C31.6812 35.3348 31.9979 35.6582 32.3952 35.6667H34.91C35.3121 35.6667 35.6383 35.3405 35.6383 34.9384V18.8241C35.6298 18.4268 35.3064 18.11 34.91 18.11H32.3952Z" fill="white"/>
</svg>
