<svg width="16" height="16" viewBox="0 0 16 16" fill="none" xmlns="http://www.w3.org/2000/svg">
<path d="M14 5.6C14 5.44 13.938 5.29 13.824 5.176C13.59 4.942 13.21 4.942 12.976 5.176L8.6 9.552C8.446 9.706 8.228 9.794 8 9.794C7.772 9.794 7.554 9.706 7.4 9.552L3.024 5.176C2.908 5.06 2.754 5 2.6 5C2.446 5 2.292 5.058 2.176 5.176C2.06 5.294 2 5.44 2 5.6C2 5.76 2.062 5.91 2.176 6.024L6.552 10.4C6.938 10.786 7.454 11 8 11C8.546 11 9.062 10.786 9.448 10.4L13.824 6.024C13.938 5.91 14 5.76 14 5.6Z" fill="white"/>
</svg>
