<svg width="24" height="24" viewBox="0 0 24 24" fill="none" xmlns="http://www.w3.org/2000/svg">
<g opacity="0.5">
<path fill-rule="evenodd" clip-rule="evenodd" d="M22 7C22 6.46916 21.7892 5.96083 21.4142 5.58583C21.0392 5.21084 20.5308 5 20 5H4C3.46916 5 2.96083 5.21083 2.58583 5.58583C2.21084 5.96083 2 6.46916 2 7V17.6667C2 18.1975 2.21083 18.7058 2.58583 19.0808C2.96083 19.4558 3.46916 19.6667 4 19.6667H20C20.5308 19.6667 21.0392 19.4558 21.4142 19.0808C21.7892 18.7058 22 18.1975 22 17.6667V7ZM20.6667 7.20667L14.1534 12.7183C12.9101 13.77 11.0901 13.77 9.84661 12.7183L3.33333 7.20667V17.3366L8.06251 12.0815L9.08083 12.9432L4.22921 18.3333H19.7693L14.9176 12.9432L15.936 12.0815L20.6651 17.3366V7.20667H20.6667ZM19.635 6.33332H4.36589L10.7083 11.6999C11.4541 12.3316 12.5466 12.3316 13.2924 11.6999L19.635 6.33332Z" fill="#231F20"/>
</g>
</svg>
