<svg width="106" height="36" viewBox="0 0 106 36" fill="none" xmlns="http://www.w3.org/2000/svg">
<rect opacity="0.24" x="0.5" y="0.5" width="105" height="35" rx="17.5" stroke="#4423B1"/>
<path d="M48.87 14.418V17.834H53.784V19.038H48.87V23H47.47V13.2H54.386V14.418H48.87ZM56.024 15.58H57.368V23H56.024V15.58ZM56.696 14.152C56.4347 14.152 56.2153 14.068 56.038 13.9C55.87 13.732 55.786 13.5267 55.786 13.284C55.786 13.0413 55.87 12.836 56.038 12.668C56.2153 12.4907 56.4347 12.402 56.696 12.402C56.9573 12.402 57.172 12.486 57.34 12.654C57.5173 12.8127 57.606 13.0133 57.606 13.256C57.606 13.508 57.5173 13.7227 57.34 13.9C57.172 14.068 56.9573 14.152 56.696 14.152ZM59.9342 12.612H61.2782V23H59.9342V12.612ZM68.194 22.566C67.998 22.734 67.7554 22.8647 67.466 22.958C67.1767 23.042 66.878 23.084 66.57 23.084C65.8234 23.084 65.2447 22.8833 64.834 22.482C64.4234 22.0807 64.218 21.5067 64.218 20.76V16.686H62.958V15.58H64.218V13.956H65.562V15.58H67.69V16.686H65.562V20.704C65.562 21.1053 65.66 21.4133 65.856 21.628C66.0614 21.8427 66.3507 21.95 66.724 21.95C67.1347 21.95 67.4847 21.8333 67.774 21.6L68.194 22.566ZM76.2788 19.332C76.2788 19.4347 76.2695 19.57 76.2508 19.738H70.2308C70.3148 20.3913 70.5995 20.9187 71.0848 21.32C71.5795 21.712 72.1908 21.908 72.9188 21.908C73.8055 21.908 74.5195 21.6093 75.0608 21.012L75.8028 21.88C75.4668 22.272 75.0468 22.5707 74.5428 22.776C74.0482 22.9813 73.4928 23.084 72.8768 23.084C72.0928 23.084 71.3975 22.9253 70.7908 22.608C70.1842 22.2813 69.7128 21.8287 69.3768 21.25C69.0502 20.6713 68.8868 20.018 68.8868 19.29C68.8868 18.5713 69.0455 17.9227 69.3628 17.344C69.6895 16.7653 70.1328 16.3173 70.6928 16C71.2622 15.6733 71.9015 15.51 72.6108 15.51C73.3202 15.51 73.9502 15.6733 74.5008 16C75.0608 16.3173 75.4948 16.7653 75.8028 17.344C76.1202 17.9227 76.2788 18.5853 76.2788 19.332ZM72.6108 16.644C71.9668 16.644 71.4255 16.84 70.9868 17.232C70.5575 17.624 70.3055 18.1373 70.2308 18.772H74.9908C74.9162 18.1467 74.6595 17.638 74.2208 17.246C73.7915 16.8447 73.2548 16.644 72.6108 16.644ZM79.4331 16.826C79.6664 16.3967 80.0118 16.07 80.4691 15.846C80.9264 15.622 81.4818 15.51 82.1351 15.51V16.812C82.0604 16.8027 81.9578 16.798 81.8271 16.798C81.0991 16.798 80.5251 17.0173 80.1051 17.456C79.6944 17.8853 79.4891 18.5013 79.4891 19.304V23H78.1451V15.58H79.4331V16.826ZM85.9743 23.084C85.3676 23.084 84.7843 23.0047 84.2243 22.846C83.6643 22.678 83.2256 22.468 82.9083 22.216L83.4683 21.152C83.7949 21.3853 84.1916 21.572 84.6583 21.712C85.1249 21.852 85.5963 21.922 86.0723 21.922C87.2483 21.922 87.8363 21.586 87.8363 20.914C87.8363 20.69 87.7569 20.5127 87.5983 20.382C87.4396 20.2513 87.2389 20.158 86.9963 20.102C86.7629 20.0367 86.4269 19.9667 85.9883 19.892C85.3909 19.7987 84.9009 19.6913 84.5183 19.57C84.1449 19.4487 83.8229 19.2433 83.5523 18.954C83.2816 18.6647 83.1463 18.2587 83.1463 17.736C83.1463 17.064 83.4263 16.5273 83.9863 16.126C84.5463 15.7153 85.2976 15.51 86.2403 15.51C86.7349 15.51 87.2296 15.5707 87.7243 15.692C88.2189 15.8133 88.6249 15.9767 88.9423 16.182L88.3683 17.246C87.7616 16.854 87.0476 16.658 86.2263 16.658C85.6569 16.658 85.2229 16.7513 84.9243 16.938C84.6256 17.1247 84.4763 17.372 84.4763 17.68C84.4763 17.9227 84.5603 18.114 84.7283 18.254C84.8963 18.394 85.1016 18.4967 85.3443 18.562C85.5963 18.6273 85.9463 18.702 86.3943 18.786C86.9916 18.8887 87.4723 19.0007 87.8363 19.122C88.2096 19.234 88.5269 19.43 88.7883 19.71C89.0496 19.99 89.1803 20.382 89.1803 20.886C89.1803 21.558 88.8909 22.0947 88.3123 22.496C87.7429 22.888 86.9636 23.084 85.9743 23.084Z" fill="#4423B1"/>
<path d="M32.725 12H23.275C22.3205 12 21.8433 12 21.547 12.2781C21.25 12.5562 21.25 13.0044 21.25 13.9001V14.3659C21.25 15.0659 21.25 15.4162 21.4255 15.7064C21.601 15.9967 21.9203 16.1776 22.5608 16.538L24.5271 17.645C24.9564 17.8867 25.1718 18.0075 25.3257 18.1411C25.6456 18.4186 25.8427 18.7453 25.9318 19.1469C25.975 19.3386 25.975 19.5641 25.975 20.0143V21.8165C25.975 22.4301 25.975 22.7372 26.1451 22.9762C26.3152 23.2158 26.6176 23.3339 27.221 23.5702C28.4894 24.0656 29.1232 24.3133 29.5741 24.0312C30.025 23.7497 30.025 23.1051 30.025 21.8159V20.0136C30.025 19.564 30.025 19.3386 30.0682 19.1462C30.153 18.7528 30.3665 18.3989 30.675 18.1405C30.8283 18.0075 31.0436 17.8867 31.4729 17.6444L33.4392 16.5374C34.0791 16.1776 34.3997 15.9973 34.5745 15.7071C34.75 15.4168 34.75 15.0659 34.75 14.3652V13.8995C34.75 13.0044 34.75 12.5562 34.453 12.2781C34.1573 12 33.6801 12 32.725 12Z" stroke="#4423B1" stroke-width="1.2"/>
</svg>
