<svg width="72" height="72" viewBox="0 0 72 72" fill="none" xmlns="http://www.w3.org/2000/svg">
<g filter="url(#filter0_d_1146_10224)">
<circle cx="36" cy="33" r="23.5" stroke="white" shape-rendering="crispEdges"/>
</g>
<path fill-rule="evenodd" clip-rule="evenodd" d="M43.3995 39.2275C43.1155 39.1169 42.8591 38.9505 42.6579 38.7472C42.3084 38.3939 42.0778 37.9576 41.8993 37.5C41.5425 36.5848 41.4104 35.5617 41.4104 34.795V32.3006C41.4104 29.5347 39.4073 27.2417 36.8261 26.8315C36.4969 26.7817 36.2536 26.4988 36.2531 26.1657V25.0871C36.2531 24.8665 36.1142 24.75 36.0001 24.75C35.8909 24.75 35.7388 24.8687 35.7388 25.0871V26.1657C35.7391 26.4961 35.5002 26.7779 35.1741 26.8315C32.5959 27.2417 30.5815 29.5352 30.5815 32.3006V34.795C30.5815 35.5614 30.4577 36.5848 30.1012 37.5C29.923 37.9576 29.684 38.3939 29.3343 38.7472C29.1329 38.9508 28.8856 39.1172 28.6011 39.2275V40.7023H43.3995V39.2275ZM26.7581 38.2993C26.9954 38.5862 26.955 39.0112 26.6681 39.2485C26.3809 39.4858 25.9559 39.4454 25.7188 39.1582C24.6458 37.8964 24 36.18 24 34.2999C24 32.4176 24.6456 30.7007 25.7188 29.4413C25.8456 29.2884 26.0333 29.1992 26.232 29.1973C26.3979 29.1957 26.5583 29.2553 26.6829 29.3645C26.9628 29.6099 26.9908 30.036 26.7452 30.3159C25.892 31.3169 25.3481 32.7272 25.3481 34.3002C25.3481 35.8701 25.892 37.2808 26.7457 38.285C26.75 38.2896 26.7541 38.2944 26.7581 38.2993L26.7581 38.2993ZM28.5562 36.2313C28.7913 36.5201 28.7479 36.9449 28.4594 37.18C28.1708 37.4154 27.7461 37.372 27.5109 37.0835C26.8993 36.3508 26.5415 35.3684 26.5415 34.2992C26.5415 33.23 26.8983 32.2457 27.5118 31.5141C27.6372 31.3598 27.824 31.2692 28.0228 31.2657C28.1886 31.2628 28.3496 31.321 28.475 31.4294C28.7568 31.6727 28.7881 32.0985 28.5448 32.3803C28.1519 32.8489 27.8898 33.5331 27.8898 34.2992C27.8898 35.0653 28.1511 35.7462 28.5459 36.2192L28.5514 36.2255L28.5562 36.2313ZM44.4874 31.514C44.3574 31.3547 44.1619 31.263 43.9561 31.2657C43.5837 31.2705 43.2857 31.5761 43.2906 31.9485C43.2925 32.1073 43.3507 32.2602 43.4543 32.3805C43.848 32.8502 44.1123 33.5344 44.1123 34.2994C44.1123 35.0642 43.8491 35.7456 43.4535 36.2194C43.211 36.502 43.2439 36.9278 43.5265 37.17C43.8092 37.4124 44.235 37.3795 44.4771 37.0969C44.4809 37.0926 44.4846 37.088 44.4884 37.0835L44.4884 37.0834C45.0992 36.3518 45.4606 35.3697 45.4606 34.2991C45.4603 33.2286 45.1 32.2446 44.4874 31.514ZM45.0867 29.8848C45.0795 29.5124 45.3753 29.2047 45.7477 29.1974C45.9534 29.1934 46.1498 29.2834 46.2808 29.4423C47.3508 30.7013 47.9994 32.4175 47.9994 34.3005C47.9994 36.1814 47.3506 37.897 46.2811 39.1583C46.277 39.1634 46.2727 39.1685 46.2684 39.1734C46.0236 39.4538 45.5975 39.4824 45.317 39.2375C45.0366 38.9927 45.008 38.5666 45.2529 38.2862C46.105 37.2814 46.6511 35.87 46.6511 34.3005C46.6511 32.7281 46.1047 31.317 45.2534 30.3154C45.1488 30.196 45.09 30.0433 45.0867 29.8848ZM36.9348 41.0684C36.7449 41.4602 36.3663 41.7115 35.9057 41.7115C35.4476 41.7115 35.0695 41.4602 34.8794 41.0684H36.9348Z" fill="white"/>
<defs>
<filter id="filter0_d_1146_10224" x="0" y="0" width="72" height="72" filterUnits="userSpaceOnUse" color-interpolation-filters="sRGB">
<feFlood flood-opacity="0" result="BackgroundImageFix"/>
<feColorMatrix in="SourceAlpha" type="matrix" values="0 0 0 0 0 0 0 0 0 0 0 0 0 0 0 0 0 0 127 0" result="hardAlpha"/>
<feOffset dy="3"/>
<feGaussianBlur stdDeviation="6"/>
<feComposite in2="hardAlpha" operator="out"/>
<feColorMatrix type="matrix" values="0 0 0 0 0.137255 0 0 0 0 0.121569 0 0 0 0 0.12549 0 0 0 0.12 0"/>
<feBlend mode="normal" in2="BackgroundImageFix" result="effect1_dropShadow_1146_10224"/>
<feBlend mode="normal" in="SourceGraphic" in2="effect1_dropShadow_1146_10224" result="shape"/>
</filter>
</defs>
</svg>
