<svg width="72" height="72" viewBox="0 0 72 72" fill="none" xmlns="http://www.w3.org/2000/svg">
<g filter="url(#filter0_d_1146_10254)">
<circle cx="36" cy="33" r="23.5" stroke="white" shape-rendering="crispEdges"/>
</g>
<path fill-rule="evenodd" clip-rule="evenodd" d="M43.3828 28.875C43.3828 27.1277 41.966 25.7109 40.2188 25.7109C39.498 25.7109 38.8371 25.95 38.3063 26.3578C37.459 24.5754 35.6449 23.25 33.5391 23.25C30.6281 23.25 28.2656 25.7039 28.2656 28.6148C28.2656 28.7098 28.2691 28.8012 28.2727 28.8926C26.3004 29.0648 24.75 30.7207 24.75 32.7422C24.75 34.8762 26.4832 36.6094 28.6172 36.6094H30.7969V34.2574H29.8125C29.4012 34.2574 29.0285 34.0289 28.8387 33.6598C28.6523 33.2906 28.6875 32.8547 28.9301 32.5207L31.8762 28.4742C32.0801 28.193 32.4105 28.0242 32.7586 28.0242C33.1066 28.0242 33.4371 28.193 33.641 28.4742L36.5836 32.5207C36.8262 32.8547 36.8613 33.2906 36.675 33.6598C36.4887 34.0289 36.116 34.2574 35.7012 34.2574H34.7168V36.6094H37.2797V33.8672C37.2797 33.266 37.7684 32.7738 38.3695 32.7738H40.1098C40.7109 32.7738 41.1996 33.2625 41.1996 33.8672V36.6094H43.3828C45.5203 36.6094 47.25 34.8762 47.25 32.7422C47.25 30.6047 45.5203 28.875 43.3828 28.875ZM33.5391 25.0078C31.6617 25.0078 30.0516 26.6391 30.027 28.5656C30.0234 28.759 29.8688 28.9137 29.6754 28.9137H29.6719C29.4785 28.9102 29.3238 28.752 29.3238 28.5586C29.3555 26.2523 31.2855 24.3047 33.5391 24.3047C33.7324 24.3047 33.8906 24.4629 33.8906 24.6562C33.8906 24.8496 33.7324 25.0078 33.5391 25.0078ZM42.1874 38.6373H40.8901C40.6757 38.6373 40.5034 38.465 40.5034 38.2506V33.8701C40.5034 33.6557 40.3311 33.4834 40.1167 33.4834H38.3764C38.162 33.4834 37.9897 33.6557 37.9897 33.8701V38.2506C37.9897 38.465 37.8175 38.6373 37.603 38.6373H36.3057C35.9893 38.6373 35.8065 38.9959 35.9928 39.2561L38.9354 43.3025C39.0901 43.517 39.4065 43.517 39.5647 43.3025L42.5108 39.2561C42.6866 38.9994 42.5038 38.6373 42.1874 38.6373ZM33.076 28.8923L36.0186 32.9388C36.205 33.1954 36.0221 33.554 35.6952 33.5575H34.3979C34.1835 33.5575 34.0112 33.7298 34.0112 33.9442V38.3247C34.0112 38.5392 33.8389 38.7114 33.6245 38.7114H31.8842C31.6698 38.7114 31.4975 38.5392 31.4975 38.3247V33.9442C31.4975 33.7298 31.3253 33.5575 31.1108 33.5575H29.8135C29.4971 33.5575 29.3143 33.1954 29.5007 32.9388L32.4467 28.8923C32.605 28.6778 32.9214 28.6778 33.076 28.8923Z" fill="white"/>
<defs>
<filter id="filter0_d_1146_10254" x="0" y="0" width="72" height="72" filterUnits="userSpaceOnUse" color-interpolation-filters="sRGB">
<feFlood flood-opacity="0" result="BackgroundImageFix"/>
<feColorMatrix in="SourceAlpha" type="matrix" values="0 0 0 0 0 0 0 0 0 0 0 0 0 0 0 0 0 0 127 0" result="hardAlpha"/>
<feOffset dy="3"/>
<feGaussianBlur stdDeviation="6"/>
<feComposite in2="hardAlpha" operator="out"/>
<feColorMatrix type="matrix" values="0 0 0 0 0.137255 0 0 0 0 0.121569 0 0 0 0 0.12549 0 0 0 0.12 0"/>
<feBlend mode="normal" in2="BackgroundImageFix" result="effect1_dropShadow_1146_10254"/>
<feBlend mode="normal" in="SourceGraphic" in2="effect1_dropShadow_1146_10254" result="shape"/>
</filter>
</defs>
</svg>
