<svg width="72" height="72" viewBox="0 0 72 72" fill="none" xmlns="http://www.w3.org/2000/svg">
<g filter="url(#filter0_d_1146_10207)">
<circle cx="36" cy="33" r="24" fill="white"/>
</g>
<path d="M29.4929 27.079C29.3368 27.079 29.1861 27.0164 29.0761 26.9064L26.7305 24.5607V24.5596C26.5006 24.3309 26.5006 23.9591 26.7305 23.7304C26.9592 23.5006 27.3309 23.5006 27.5596 23.7304L29.9053 26.0761H29.9064C30.0747 26.2433 30.1264 26.4962 30.0351 26.7161C29.9449 26.9361 29.7305 27.079 29.4929 27.079ZM28.4988 30.3045C28.4988 30.1495 28.4361 29.9999 28.3262 29.8899C28.2162 29.7799 28.0677 29.7183 27.9116 29.7183H24.5861C24.2628 29.7183 24 29.9812 24 30.3045C24 30.6289 24.2628 30.8917 24.5861 30.8917H27.9116C28.2338 30.8917 28.4955 30.6322 28.4988 30.3111L28.4988 30.3045ZM33.8974 24.9116V21.5861C33.8974 21.2628 33.6346 21 33.3113 21C32.9869 21 32.724 21.2628 32.724 21.5861V24.9116C32.724 25.236 32.9869 25.4988 33.3113 25.4988C33.6346 25.4988 33.8974 25.236 33.8974 24.9116ZM45.2728 42.2728C45.3828 42.1629 45.4444 42.0133 45.4444 41.8582C45.4444 41.7021 45.3828 41.5525 45.2728 41.4425L42.9271 39.0968C42.6973 38.8681 42.3256 38.8681 42.0969 39.0968C41.8681 39.3256 41.8681 39.6973 42.0969 39.9271L44.4426 42.2728C44.5536 42.3839 44.7032 42.4455 44.8594 42.4455C45.0144 42.4455 45.1628 42.3828 45.2728 42.2728ZM39.276 44.414V41.0886C39.276 40.7642 39.0132 40.5014 38.6888 40.5014C38.3655 40.5014 38.1026 40.7642 38.1026 41.0886V44.414C38.1026 44.7373 38.3655 45.0002 38.6888 45.0002C39.0132 45.0002 39.276 44.7373 39.276 44.414ZM48 35.6889C48 35.5338 47.9384 35.3843 47.8284 35.2743C47.7185 35.1643 47.5689 35.1027 47.4138 35.1027H44.0884C43.764 35.1027 43.5012 35.3655 43.5012 35.6889C43.5012 36.0133 43.764 36.2761 44.0884 36.2761H47.4138C47.5689 36.2761 47.7185 36.2134 47.8284 36.1034C47.9384 35.9935 48 35.8451 48 35.6889ZM40.5539 28.8475L40.1844 28.478C39.8544 28.1447 39.4047 27.9578 38.9351 27.9578C38.4666 27.9578 38.0168 28.1447 37.6858 28.478L31.9674 34.1964C31.654 34.4966 31.4571 34.8969 31.4109 35.328C31.368 35.8327 31.5506 36.3309 31.9091 36.6894L32.3105 37.1051C32.9846 37.7737 34.0711 37.7737 34.7453 37.1051L40.4991 31.3372C40.8115 31.0369 41.0083 30.6366 41.0534 30.2056C41.0963 29.7008 40.9137 29.2037 40.5541 28.8474L40.5539 28.8475ZM41.3545 26.5018L40.5418 27.3145L40.5429 27.3134C40.7375 27.4398 40.9179 27.5872 41.0818 27.751L41.3754 28.0447V28.0436C41.5041 28.1755 41.6217 28.3185 41.724 28.4725L42.5213 27.6719L41.3545 26.5018ZM35.5744 37.9411C35.0059 38.5141 34.2228 38.8209 33.4167 38.7857C33.3112 38.7824 33.2067 38.7714 33.1022 38.7538L31.049 40.807H31.0501C30.9402 40.917 30.7917 40.9785 30.6366 40.9796C30.4805 40.9796 30.3298 40.917 30.2198 40.807L28.2139 38.8011C28.104 38.6911 28.0424 38.5416 28.0424 38.3854C28.0424 38.2303 28.104 38.0808 28.2139 37.9708L30.2671 35.9176C30.233 35.6988 30.2242 35.4766 30.2429 35.2556C30.31 34.5462 30.6267 33.8831 31.1381 33.3871L33.3408 31.1844H33.3397C32.5556 30.8017 31.6143 30.9568 30.994 31.5715L25.6329 36.927C25.248 37.3119 25.0325 37.8343 25.0325 38.3786C25.0325 38.923 25.248 39.4454 25.6329 39.8303L29.1937 43.3902C29.5786 43.7751 30.101 43.9917 30.6453 43.9917C31.1897 43.9917 31.712 43.7751 32.0969 43.3902L37.4482 38.0378C38.0629 37.4175 38.2191 36.4773 37.8353 35.6921L35.5744 37.9411ZM30.6443 39.5544L31.9178 38.2787C31.7319 38.1567 31.5593 38.0159 31.402 37.8597L31.0787 37.5364C30.9456 37.4056 30.8257 37.2615 30.7213 37.1054L29.4544 38.3689L30.6443 39.5544ZM46.3671 26.217L42.8063 22.6571C42.4214 22.2722 41.899 22.0555 41.3547 22.0555C40.8103 22.0555 40.288 22.2722 39.9031 22.6571L34.5518 28.0148C33.937 28.6351 33.7809 29.5754 34.1647 30.3605L36.8568 27.6684C37.4935 27.0372 38.3854 26.7326 39.2762 26.8414H39.3466L40.9423 25.2457H40.9412C41.0512 25.1358 41.2007 25.0742 41.3569 25.0742C41.5119 25.0742 41.6615 25.1358 41.7715 25.2457L43.7774 27.2516C43.8874 27.3616 43.9489 27.5112 43.9489 27.6673C43.9489 27.8224 43.8874 27.9719 43.7774 28.0819L42.1993 29.66C42.2323 29.8789 42.24 30.101 42.2235 30.3221C42.1553 31.0314 41.8375 31.6945 41.3261 32.1905L38.6604 34.8595C38.9408 34.997 39.2498 35.0696 39.5632 35.0707C40.1087 35.0718 40.6311 34.854 41.0148 34.4658L46.3673 29.1168C47.1667 28.3162 47.1667 27.0185 46.3673 26.2168L46.3671 26.217Z" fill="#4423B1"/>
<defs>
<filter id="filter0_d_1146_10207" x="0" y="0" width="72" height="72" filterUnits="userSpaceOnUse" color-interpolation-filters="sRGB">
<feFlood flood-opacity="0" result="BackgroundImageFix"/>
<feColorMatrix in="SourceAlpha" type="matrix" values="0 0 0 0 0 0 0 0 0 0 0 0 0 0 0 0 0 0 127 0" result="hardAlpha"/>
<feOffset dy="3"/>
<feGaussianBlur stdDeviation="6"/>
<feComposite in2="hardAlpha" operator="out"/>
<feColorMatrix type="matrix" values="0 0 0 0 0.137255 0 0 0 0 0.121569 0 0 0 0 0.12549 0 0 0 0.12 0"/>
<feBlend mode="normal" in2="BackgroundImageFix" result="effect1_dropShadow_1146_10207"/>
<feBlend mode="normal" in="SourceGraphic" in2="effect1_dropShadow_1146_10207" result="shape"/>
</filter>
</defs>
</svg>
