<svg width="72" height="72" viewBox="0 0 72 72" fill="none" xmlns="http://www.w3.org/2000/svg">
<g filter="url(#filter0_d_1146_10210)">
<circle cx="36" cy="33" r="23.5" stroke="white" shape-rendering="crispEdges"/>
</g>
<path d="M37.5 39H27C26.1716 39 25.5 39.6715 25.5 40.5V42C25.5 42.8284 26.1716 43.5 27 43.5H37.5C38.3284 43.5 39 42.8284 39 42V40.5C39 39.6715 38.3284 39 37.5 39ZM31.125 41.625H27.375C27.1677 41.625 27 41.4573 27 41.25C27 41.0427 27.1677 40.875 27.375 40.875H31.125C31.3323 40.875 31.5 41.0427 31.5 41.25C31.5 41.4573 31.3323 41.625 31.125 41.625ZM34.5 42C34.0858 42 33.75 41.6642 33.75 41.25C33.75 40.8358 34.0858 40.5 34.5 40.5C34.9142 40.5 35.25 40.8358 35.25 41.25C35.25 41.6642 34.9142 42 34.5 42ZM36.75 42C36.3358 42 36 41.6642 36 41.25C36 40.8358 36.3358 40.5 36.75 40.5C37.1642 40.5 37.5 40.8358 37.5 41.25C37.5 41.6642 37.1642 42 36.75 42Z" fill="white"/>
<path d="M37.5 33.75H27C26.1716 33.75 25.5 34.4215 25.5 35.25V36.75C25.5 37.5784 26.1716 38.25 27 38.25H37.5C38.3284 38.25 39 37.5784 39 36.75V35.25C39 34.4215 38.3284 33.75 37.5 33.75ZM31.125 36.375H27.375C27.1677 36.375 27 36.2073 27 36C27 35.7927 27.1677 35.625 27.375 35.625H31.125C31.3323 35.625 31.5 35.7927 31.5 36C31.5 36.2073 31.3323 36.375 31.125 36.375ZM34.5 36.75C34.0858 36.75 33.75 36.4142 33.75 36C33.75 35.5858 34.0858 35.25 34.5 35.25C34.9142 35.25 35.25 35.5858 35.25 36C35.25 36.4142 34.9142 36.75 34.5 36.75ZM36.75 36.75C36.3358 36.75 36 36.4142 36 36C36 35.5858 36.3358 35.25 36.75 35.25C37.1642 35.25 37.5 35.5858 37.5 36C37.5 36.4142 37.1642 36.75 36.75 36.75Z" fill="white"/>
<path d="M46.2643 27.6557L44.8154 27.2308C44.7242 26.9201 44.6026 26.6227 44.4501 26.3439L45.1729 25.021C45.2334 24.8801 45.2019 24.7166 45.0934 24.6081L44.3918 23.9065C44.2834 23.7981 44.1199 23.7666 43.979 23.827L42.6561 24.5499C42.3773 24.3974 42.0799 24.2758 41.7692 24.1846L41.3443 22.7357C41.2874 22.5933 41.1494 22.5 40.9961 22.5H40.0039C39.8506 22.5 39.7126 22.5933 39.6557 22.7357L39.2308 24.1846C38.9201 24.2758 38.6227 24.3974 38.3439 24.5499L37.021 23.827C36.8801 23.7666 36.7166 23.7981 36.6082 23.9065L35.9066 24.6081C35.7981 24.7166 35.7666 24.8801 35.8271 25.021L36.5499 26.3439C36.3974 26.6227 36.2758 26.9201 36.1846 27.2308L34.7357 27.6557C34.5933 27.7126 34.5 27.8505 34.5 28.0039V28.9961C34.5 29.1494 34.5933 29.2874 34.7357 29.3443L36.1846 29.7692C36.2758 30.0799 36.3974 30.3773 36.5499 30.6561L35.8271 31.979C35.7666 32.1199 35.7981 32.2834 35.9066 32.3918L36.6082 33.0934C36.7166 33.2019 36.8801 33.2334 37.021 33.1729L38.3439 32.4501C38.6227 32.6026 38.9201 32.7242 39.2308 32.8154L39.6557 34.2643C39.7126 34.4066 39.8506 34.5 40.0039 34.5H40.9961C41.1494 34.5 41.2874 34.4066 41.3443 34.2643L41.7692 32.8154C42.0799 32.7242 42.3773 32.6026 42.6561 32.4501L43.979 33.1729C44.1199 33.2334 44.2834 33.2019 44.3918 33.0934L45.0934 32.3918C45.2019 32.2834 45.2334 32.1199 45.1729 31.979L44.4501 30.6561C44.6026 30.3773 44.7242 30.0799 44.8154 29.7692L46.2643 29.3443C46.4067 29.2874 46.5 29.1494 46.5 28.9961V28.0039C46.5 27.8505 46.4067 27.7126 46.2643 27.6557ZM40.5 30.75C39.2574 30.75 38.25 29.7426 38.25 28.5C38.25 27.2574 39.2574 26.25 40.5 26.25C41.7426 26.25 42.75 27.2574 42.75 28.5C42.75 29.7426 41.7426 30.75 40.5 30.75Z" fill="white"/>
<path d="M40.5 30C41.3284 30 42 29.3284 42 28.5C42 27.6716 41.3284 27 40.5 27C39.6716 27 39 27.6716 39 28.5C39 29.3284 39.6716 30 40.5 30Z" fill="white"/>
<defs>
<filter id="filter0_d_1146_10210" x="0" y="0" width="72" height="72" filterUnits="userSpaceOnUse" color-interpolation-filters="sRGB">
<feFlood flood-opacity="0" result="BackgroundImageFix"/>
<feColorMatrix in="SourceAlpha" type="matrix" values="0 0 0 0 0 0 0 0 0 0 0 0 0 0 0 0 0 0 127 0" result="hardAlpha"/>
<feOffset dy="3"/>
<feGaussianBlur stdDeviation="6"/>
<feComposite in2="hardAlpha" operator="out"/>
<feColorMatrix type="matrix" values="0 0 0 0 0.137255 0 0 0 0 0.121569 0 0 0 0 0.12549 0 0 0 0.12 0"/>
<feBlend mode="normal" in2="BackgroundImageFix" result="effect1_dropShadow_1146_10210"/>
<feBlend mode="normal" in="SourceGraphic" in2="effect1_dropShadow_1146_10210" result="shape"/>
</filter>
</defs>
</svg>
