<svg width="72" height="72" viewBox="0 0 72 72" fill="none" xmlns="http://www.w3.org/2000/svg">
<g filter="url(#filter0_d_1146_10236)">
<circle cx="36" cy="33" r="23.5" stroke="white" shape-rendering="crispEdges"/>
</g>
<path d="M47.4393 33.058C47.5392 33.1594 47.6136 33.2831 47.6562 33.419C47.6988 33.5548 47.7084 33.6988 47.6842 33.8391L47.0744 37.5614C47.0438 37.7451 46.9565 37.9147 46.8248 38.0464C46.6931 38.1781 46.5235 38.2654 46.3398 38.296C46.2925 38.3 46.245 38.3 46.1978 38.296C45.9487 38.2962 45.7095 38.1986 45.5317 38.0242L44.8313 37.3238L40.1443 42.0207C40.0351 42.1299 39.9055 42.2165 39.7628 42.2757C39.6202 42.3348 39.4673 42.3652 39.3129 42.3652C39.1585 42.3652 39.0056 42.3348 38.8629 42.2757C38.7203 42.2165 38.5907 42.1299 38.4815 42.0207L36.1037 39.6429L31.0836 44.6556C30.8631 44.8761 30.564 45 30.2522 45C29.9404 45 29.6413 44.8761 29.4208 44.6556C29.2003 44.4351 29.0765 44.1361 29.0765 43.8243C29.0765 43.5124 29.2003 43.2134 29.4208 42.9929L35.2662 37.15C35.3753 37.0408 35.5049 36.9541 35.6476 36.895C35.7902 36.8359 35.9431 36.8055 36.0976 36.8055C36.252 36.8055 36.4049 36.8359 36.5475 36.895C36.6902 36.9541 36.8198 37.0408 36.9289 37.15L39.3068 39.5278L43.171 35.6635L42.4633 34.9607C42.3688 34.8692 42.2951 34.7584 42.2473 34.6359C42.1996 34.5133 42.1788 34.3819 42.1866 34.2505C42.2004 34.0487 42.2819 33.8575 42.4179 33.7077C42.5538 33.5579 42.7364 33.4584 42.9359 33.4253L46.6581 32.8106C46.7067 32.8024 46.7558 32.7983 46.8051 32.7984C47.0425 32.7977 47.2705 32.8911 47.4393 33.058ZM29.4673 39.9955L30.3489 39.1237L31.1987 38.274C31.3875 38.0917 31.5022 37.8461 31.5208 37.5843C31.5393 37.3225 31.4603 37.0631 31.2991 36.8561C31.2076 36.7448 31.0939 36.6538 30.9652 36.589C30.8365 36.5243 30.6957 36.4871 30.5518 36.4799C30.4079 36.4728 30.2642 36.4958 30.1297 36.5475C29.9952 36.5992 29.873 36.6785 29.771 36.7802L28.8796 37.6544C27.8542 36.3588 27.2113 34.8024 27.0234 33.1608H28.336C28.6101 33.1608 28.8729 33.0519 29.0667 32.8581C29.2605 32.6643 29.3694 32.4015 29.3694 32.1274C29.3694 31.8533 29.2605 31.5905 29.0667 31.3967C28.8729 31.2029 28.6101 31.094 28.336 31.094H27.0357C27.2198 29.4536 27.8585 27.8973 28.8796 26.6004L29.7612 27.482C29.8632 27.5837 29.9854 27.6629 30.1199 27.7146C30.2544 27.7663 30.3982 27.7894 30.542 27.7822C30.6859 27.7751 30.8267 27.7379 30.9554 27.6731C31.0841 27.6084 31.1978 27.5174 31.2893 27.4061C31.4499 27.1992 31.5284 26.9404 31.5099 26.6791C31.4914 26.4179 31.377 26.1728 31.1889 25.9906L30.3489 25.1409C31.6445 24.1154 33.2009 23.4724 34.8425 23.2847V24.5311C34.8425 24.8052 34.9514 25.0681 35.1452 25.2619C35.339 25.4557 35.6019 25.5645 35.8759 25.5645C36.15 25.5645 36.4129 25.4557 36.6067 25.2619C36.8005 25.0681 36.9093 24.8052 36.9093 24.5311V23.2847L37.2522 23.3312C39.1037 23.6365 40.8102 24.5223 42.1254 25.8608L42.1645 25.9C43.3364 27.048 44.1635 28.5011 44.5522 30.0949L44.5644 30.1488C44.6247 30.4272 44.7891 30.672 45.024 30.8331C45.2589 30.9943 45.5465 31.0596 45.828 31.0156C45.9801 30.9868 46.1247 30.9273 46.2531 30.8409C46.3814 30.7544 46.4909 30.6427 46.5747 30.5126C46.6585 30.3825 46.715 30.2366 46.7408 30.084C46.7665 29.9314 46.7609 29.7751 46.7243 29.6247C46.3363 27.9455 45.5638 26.3794 44.4674 25.0496C43.3711 23.7199 41.9809 22.663 40.4065 21.962C38.832 21.2611 37.1163 20.9354 35.3946 21.0106C33.6728 21.0858 31.992 21.5597 30.4846 22.3952C28.9772 23.2306 27.6845 24.4047 26.7082 25.8249C25.7318 27.2451 25.0987 28.8726 24.8586 30.5792C24.6184 32.2858 24.7779 34.0248 25.3244 35.6593C25.8709 37.2938 26.7895 38.779 28.0078 39.998C28.2019 40.1908 28.4645 40.2989 28.7381 40.2984C29.0117 40.298 29.274 40.189 29.4673 39.9955ZM41.0185 27.0167C40.8473 26.8435 40.6178 26.7403 40.3747 26.7272C40.1316 26.7141 39.8923 26.792 39.7035 26.9457L36.2261 29.73C35.7361 29.6632 35.2373 29.7476 34.7965 29.9718C34.3557 30.1961 33.9938 30.5495 33.7593 30.985C33.5247 31.4204 33.4287 31.917 33.484 32.4085C33.5392 32.9 33.7432 33.3629 34.0686 33.7353C34.3941 34.1078 34.8254 34.372 35.305 34.4927C35.7846 34.6135 36.2897 34.5849 36.7526 34.4109C37.2156 34.2369 37.6144 33.9257 37.8958 33.519C38.1772 33.1123 38.3277 32.6293 38.3272 32.1348C38.3265 32.0249 38.3184 31.9153 38.3027 31.8066L41.0895 28.3489C41.245 28.1593 41.3237 27.9182 41.3101 27.6734C41.2965 27.4285 41.1916 27.1977 41.016 27.0265L41.0185 27.0167Z" fill="white"/>
<defs>
<filter id="filter0_d_1146_10236" x="0" y="0" width="72" height="72" filterUnits="userSpaceOnUse" color-interpolation-filters="sRGB">
<feFlood flood-opacity="0" result="BackgroundImageFix"/>
<feColorMatrix in="SourceAlpha" type="matrix" values="0 0 0 0 0 0 0 0 0 0 0 0 0 0 0 0 0 0 127 0" result="hardAlpha"/>
<feOffset dy="3"/>
<feGaussianBlur stdDeviation="6"/>
<feComposite in2="hardAlpha" operator="out"/>
<feColorMatrix type="matrix" values="0 0 0 0 0.137255 0 0 0 0 0.121569 0 0 0 0 0.12549 0 0 0 0.12 0"/>
<feBlend mode="normal" in2="BackgroundImageFix" result="effect1_dropShadow_1146_10236"/>
<feBlend mode="normal" in="SourceGraphic" in2="effect1_dropShadow_1146_10236" result="shape"/>
</filter>
</defs>
</svg>
