<svg width="72" height="72" viewBox="0 0 72 72" fill="none" xmlns="http://www.w3.org/2000/svg">
<g filter="url(#filter0_d_1146_10233)">
<circle cx="36" cy="33" r="23.5" stroke="white" shape-rendering="crispEdges"/>
</g>
<path fill-rule="evenodd" clip-rule="evenodd" d="M35.8578 22.5C40.3295 22.5 43.9565 23.7098 43.9565 25.2026C43.9565 26.6954 40.3295 27.9098 35.8578 27.9098C31.3862 27.9098 27.7591 26.7 27.7591 25.2095C27.7591 23.7189 31.3862 22.5 35.8578 22.5ZM43.9565 40.7928C43.9565 42.2834 40.3295 43.5 35.8578 43.5C31.3862 43.5 27.7591 42.2902 27.7591 40.7997V36.7663C28.3684 37.2054 29.0497 37.5345 29.7724 37.7387C31.3771 38.25 33.5752 38.5604 35.8578 38.5604C38.1404 38.5604 40.3386 38.25 41.9433 37.7387C42.6659 37.5345 43.3473 37.2054 43.9565 36.7663V40.7928ZM27.75 36.0587C28.097 36.4947 28.8685 36.9033 29.923 37.2388C31.4798 37.7318 33.6117 38.0377 35.8578 38.0377C38.1039 38.0377 40.229 37.7318 41.7926 37.2388C42.854 36.9033 43.6324 36.4947 43.9634 36.0587V31.5734C43.3524 32.0132 42.6685 32.3416 41.9433 32.5435C40.3386 33.0525 38.1404 33.3675 35.8578 33.3675C33.5752 33.3675 31.3771 33.0525 29.7724 32.5435C29.0495 32.3409 28.368 32.0125 27.7591 31.5734V36.0587H27.75ZM27.75 30.8635C28.081 31.2995 28.8593 31.708 29.9208 32.0436C31.4775 32.5366 33.6095 32.8425 35.8555 32.8425C38.1016 32.8425 40.229 32.5435 41.7926 32.0436C42.854 31.708 43.6324 31.2995 43.9634 30.8635V26.3188C42.7467 27.5537 39.5762 28.4348 35.8578 28.4348C32.1395 28.4348 28.9689 27.5537 27.7591 26.3188L27.75 30.8635Z" fill="white"/>
<defs>
<filter id="filter0_d_1146_10233" x="0" y="0" width="72" height="72" filterUnits="userSpaceOnUse" color-interpolation-filters="sRGB">
<feFlood flood-opacity="0" result="BackgroundImageFix"/>
<feColorMatrix in="SourceAlpha" type="matrix" values="0 0 0 0 0 0 0 0 0 0 0 0 0 0 0 0 0 0 127 0" result="hardAlpha"/>
<feOffset dy="3"/>
<feGaussianBlur stdDeviation="6"/>
<feComposite in2="hardAlpha" operator="out"/>
<feColorMatrix type="matrix" values="0 0 0 0 0.137255 0 0 0 0 0.121569 0 0 0 0 0.12549 0 0 0 0.12 0"/>
<feBlend mode="normal" in2="BackgroundImageFix" result="effect1_dropShadow_1146_10233"/>
<feBlend mode="normal" in="SourceGraphic" in2="effect1_dropShadow_1146_10233" result="shape"/>
</filter>
</defs>
</svg>
