<svg width="72" height="72" viewBox="0 0 72 72" fill="none" xmlns="http://www.w3.org/2000/svg">
<g filter="url(#filter0_d_1146_10239)">
<circle cx="36" cy="33" r="23.5" stroke="white" shape-rendering="crispEdges"/>
</g>
<path fill-rule="evenodd" clip-rule="evenodd" d="M39.949 22.5029C37.7485 20.5292 34.6479 20.4691 32.3875 22.5029C31.7207 23.103 32.6342 24.0765 33.281 23.4964C35.0213 21.9294 37.3618 21.9694 39.0555 23.4964C39.7156 24.0832 40.6025 23.0963 39.949 22.5029ZM34.0545 24.5037C35.3147 23.3702 37.0551 23.4035 38.282 24.5037C38.9354 25.0972 38.0486 26.084 37.3885 25.4973C36.6683 24.8505 35.6948 24.8238 34.948 25.4973C34.3012 26.0774 33.3877 25.1038 34.0545 24.5037ZM36.8354 26.9959C36.8354 27.3642 36.5368 27.6627 36.1686 27.6627C35.8003 27.6627 35.5018 27.3642 35.5018 26.9959C35.5018 26.6276 35.8003 26.3291 36.1686 26.3291C36.5368 26.3291 36.8354 26.6276 36.8354 26.9959ZM38.8348 28.998H33.5004C32.3935 28.998 31.5 29.8916 31.5 30.9984V43.0008C31.5 44.1077 32.3935 45.0012 33.5004 45.0012H38.8348C39.9417 45.0012 40.8352 44.1077 40.8352 43.0008V30.9984C40.8352 29.8916 39.9417 28.998 38.8348 28.998ZM36.1676 30.9984C36.5343 30.9984 36.8344 31.2985 36.8344 31.6652C36.8344 32.032 36.5343 32.332 36.1676 32.332C35.8009 32.332 35.5008 32.032 35.5008 31.6652C35.5008 31.2985 35.8009 30.9984 36.1676 30.9984ZM34.1672 30.9984C34.5339 30.9984 34.834 31.2985 34.834 31.6652C34.834 32.032 34.5339 32.332 34.1672 32.332C33.8005 32.332 33.5004 32.032 33.5004 31.6652C33.5004 31.2985 33.8005 30.9984 34.1672 30.9984ZM34.834 43.0008H34.1672C33.287 43.0008 33.287 41.6672 34.1672 41.6672H34.834C35.7142 41.6672 35.7142 43.0008 34.834 43.0008ZM38.168 43.0008H37.5012C36.621 43.0008 36.621 41.6672 37.5012 41.6672H38.168C39.0482 41.6672 39.0482 43.0008 38.168 43.0008ZM36.1676 39.6668C34.694 39.6668 33.5004 38.4733 33.5004 36.9996C33.5004 35.526 34.694 34.3324 36.1676 34.3324C37.6412 34.3324 38.8348 35.526 38.8348 36.9996C38.8348 38.4733 37.6412 39.6668 36.1676 39.6668ZM38.168 32.332C37.8013 32.332 37.5012 32.032 37.5012 31.6652C37.5012 31.2985 37.8013 30.9984 38.168 30.9984C38.5347 30.9984 38.8348 31.2985 38.8348 31.6652C38.8348 32.032 38.5347 32.332 38.168 32.332ZM36.1676 38.3332C36.9041 38.3332 37.5012 37.7361 37.5012 36.9996C37.5012 36.2631 36.9041 35.666 36.1676 35.666C35.4311 35.666 34.834 36.2631 34.834 36.9996C34.834 37.7361 35.4311 38.3332 36.1676 38.3332Z" fill="white"/>
<defs>
<filter id="filter0_d_1146_10239" x="0" y="0" width="72" height="72" filterUnits="userSpaceOnUse" color-interpolation-filters="sRGB">
<feFlood flood-opacity="0" result="BackgroundImageFix"/>
<feColorMatrix in="SourceAlpha" type="matrix" values="0 0 0 0 0 0 0 0 0 0 0 0 0 0 0 0 0 0 127 0" result="hardAlpha"/>
<feOffset dy="3"/>
<feGaussianBlur stdDeviation="6"/>
<feComposite in2="hardAlpha" operator="out"/>
<feColorMatrix type="matrix" values="0 0 0 0 0.137255 0 0 0 0 0.121569 0 0 0 0 0.12549 0 0 0 0.12 0"/>
<feBlend mode="normal" in2="BackgroundImageFix" result="effect1_dropShadow_1146_10239"/>
<feBlend mode="normal" in="SourceGraphic" in2="effect1_dropShadow_1146_10239" result="shape"/>
</filter>
</defs>
</svg>
