<svg width="72" height="72" viewBox="0 0 72 72" fill="none" xmlns="http://www.w3.org/2000/svg">
<g filter="url(#filter0_d_1146_10217)">
<circle cx="36" cy="33" r="23.5" stroke="white" shape-rendering="crispEdges"/>
</g>
<path d="M31.9217 35.6064C31.988 35.5843 32.0543 35.5843 32.0985 35.5843C32.1648 35.5843 32.2311 35.5843 32.2974 35.5843C32.6732 35.5843 33.0489 35.6948 33.4025 35.8937L33.513 35.96L31.8996 31.9817C30.8166 31.5617 30.043 30.523 30.043 29.2853C30.043 27.6939 31.3249 26.3899 32.9384 26.3899C34.5518 26.3899 35.8116 27.6718 35.8116 29.2853C35.8116 29.7052 35.7232 30.1251 35.5464 30.4787L36.2315 32.1585C36.3642 32.0259 36.541 31.9154 36.7178 31.827C36.7399 31.8049 36.7841 31.8049 36.8062 31.7828C37.0493 31.6943 37.2924 31.628 37.5577 31.628C37.9555 31.628 38.3312 31.7385 38.6406 31.9375C38.7733 31.7607 38.928 31.6059 39.1269 31.4733C39.2153 31.407 39.3037 31.3628 39.4142 31.3186L39.6352 30.6335C39.6794 30.5008 39.6131 30.3461 39.4805 30.3019L38.3533 29.9041C38.3754 29.7052 38.3754 29.5063 38.3754 29.3074C38.3754 29.1084 38.3533 28.9095 38.3533 28.7106L39.4805 28.2465C39.6131 28.1802 39.6794 28.0475 39.6352 27.9149L39.1932 26.5225C39.149 26.3899 39.0164 26.3015 38.8617 26.3457L37.6682 26.633C37.4692 26.2794 37.2261 25.9479 36.9609 25.6606L37.6019 24.6218C37.6682 24.4892 37.6461 24.3344 37.5356 24.246L36.3642 23.3841C36.2536 23.2957 36.0768 23.3178 35.9884 23.4283L35.1928 24.3566C34.8391 24.2018 34.4413 24.0692 34.0435 23.9808L33.9551 22.7652C33.933 22.6105 33.8225 22.5 33.6677 22.5H32.209C32.0543 22.5 31.9438 22.6105 31.9438 22.7652L31.8554 23.9808C31.4576 24.0692 31.0818 24.2018 30.7061 24.3566L29.9104 23.4283C29.822 23.3178 29.6452 23.2957 29.5347 23.3841L28.3633 24.2239C28.2528 24.3123 28.2086 24.4671 28.297 24.5997L28.938 25.6385C28.6727 25.9258 28.4296 26.2573 28.2307 26.6109L27.0372 26.3236C26.9046 26.3015 26.7499 26.3678 26.7057 26.5004L26.2636 27.8928C26.2194 28.0254 26.2857 28.1802 26.4184 28.2244L27.5455 28.6885C27.5234 28.8874 27.5013 29.0863 27.5013 29.2853C27.5013 29.4842 27.5234 29.6831 27.5455 29.882L26.4184 30.3461C26.2857 30.3903 26.2194 30.5451 26.2636 30.6777L26.7057 32.0701C26.7499 32.2027 26.9046 32.2911 27.0372 32.2469L28.2307 31.9596C28.4296 32.3132 28.6727 32.6226 28.938 32.932L28.297 33.9708C28.2307 34.1034 28.2528 34.2582 28.3633 34.3466L29.5347 35.2085C29.6452 35.2969 29.822 35.2748 29.9104 35.1643L30.7061 34.2361C31.0597 34.3908 31.4576 34.5234 31.8554 34.6118L31.9217 35.6064Z" fill="white"/>
<path d="M45.7351 36.9983C45.713 36.9541 45.713 36.9099 45.6909 36.8878L43.8786 32.4675C43.6797 32.0033 43.1934 31.716 42.7293 31.8265C42.663 31.8486 42.5967 31.8486 42.5304 31.8928C42.022 32.1138 41.7568 32.6885 41.9778 33.2189L41.9999 33.2631C42.0662 33.4178 41.9999 33.5947 41.8452 33.661C41.6905 33.7273 41.5137 33.661 41.4474 33.5063L41.1822 32.8432C40.9611 32.3349 40.3644 32.0696 39.8561 32.2907C39.7897 32.3128 39.7455 32.357 39.6792 32.3791C39.2814 32.6443 39.1267 33.1747 39.3256 33.6389L39.414 33.8599C39.4803 34.0146 39.3919 34.1914 39.2593 34.2577C39.1046 34.324 38.9278 34.2356 38.8615 34.103L38.5299 33.3073C38.3089 32.799 37.7343 32.5338 37.2038 32.7548C37.1817 32.7548 37.1817 32.7769 37.1596 32.7769C36.6734 32.9979 36.4524 33.6168 36.6734 34.1251L36.8281 34.5229C36.8944 34.6776 36.806 34.8545 36.6513 34.9208C36.4966 34.9871 36.3198 34.8987 36.2535 34.7661L34.198 29.7268C33.9991 29.2627 33.5349 28.9754 33.0487 29.0638C32.9824 29.0859 32.9161 29.0859 32.8498 29.1301C32.3414 29.3511 32.0762 29.9258 32.2972 30.4562L35.281 37.7277C35.3252 37.8603 35.2589 37.9708 35.1705 38.015C35.1263 38.0371 35.06 38.0371 34.9937 37.9929L32.9603 36.7552C32.7172 36.6226 32.4741 36.5563 32.253 36.5784C32.1425 36.5784 32.032 36.6226 31.9436 36.6447C31.7447 36.7331 31.5679 36.8657 31.4353 37.0646C31.1258 37.5288 31.2364 38.1476 31.6563 38.5234L36.3198 42.5459C37.447 43.5184 38.9941 43.7615 40.3644 43.2089L43.4807 41.927C44.409 41.5513 45.1605 40.8219 45.5804 39.9158C46.0225 38.9875 46.0667 37.9487 45.7351 36.9983Z" fill="white"/>
<defs>
<filter id="filter0_d_1146_10217" x="0" y="0" width="72" height="72" filterUnits="userSpaceOnUse" color-interpolation-filters="sRGB">
<feFlood flood-opacity="0" result="BackgroundImageFix"/>
<feColorMatrix in="SourceAlpha" type="matrix" values="0 0 0 0 0 0 0 0 0 0 0 0 0 0 0 0 0 0 127 0" result="hardAlpha"/>
<feOffset dy="3"/>
<feGaussianBlur stdDeviation="6"/>
<feComposite in2="hardAlpha" operator="out"/>
<feColorMatrix type="matrix" values="0 0 0 0 0.137255 0 0 0 0 0.121569 0 0 0 0 0.12549 0 0 0 0.12 0"/>
<feBlend mode="normal" in2="BackgroundImageFix" result="effect1_dropShadow_1146_10217"/>
<feBlend mode="normal" in="SourceGraphic" in2="effect1_dropShadow_1146_10217" result="shape"/>
</filter>
</defs>
</svg>
