<svg width="25" height="24" viewBox="0 0 25 24" fill="none" xmlns="http://www.w3.org/2000/svg">
<path d="M3.06602 16.762C3.06602 16.7265 3.07196 16.6978 3.07875 16.6773H6.20117C6.20797 16.6978 6.21391 16.7265 6.21391 16.762V21.5159C6.21391 21.5514 6.20797 21.5801 6.20117 21.6005H3.07875C3.07196 21.5801 3.06602 21.5514 3.06602 21.5159V16.762Z" stroke="#231F20" stroke-width="0.8"/>
<path d="M8.42935 14.7672H11.5513C11.5582 14.7873 11.5643 14.8159 11.5645 14.8525V21.515C11.5645 21.5505 11.5586 21.5792 11.5518 21.5997H8.42835C8.42191 21.5795 8.41639 21.5516 8.41661 21.5176H8.41662V21.515V14.8518C8.41662 14.8163 8.42256 14.7877 8.42935 14.7672Z" stroke="#231F20" stroke-width="0.8"/>
<path d="M16.9151 21.518C16.9153 21.552 16.9098 21.5798 16.9033 21.6H13.7799C13.7731 21.5796 13.7672 21.5509 13.7672 21.5154V10.5059C13.7674 10.4693 13.7735 10.4407 13.7803 10.4205H16.9023C16.9091 10.441 16.9151 10.4697 16.9151 10.5051L16.9151 21.5154L16.9151 21.518Z" stroke="#231F20" stroke-width="0.8"/>
<path d="M19.1183 2.48535C19.1184 2.44878 19.1246 2.42016 19.1314 2.4H22.253C22.2598 2.42015 22.266 2.44876 22.2662 2.48531V21.515C22.2662 21.5505 22.2602 21.5792 22.2534 21.5997H19.131C19.1242 21.5792 19.1183 21.5505 19.1183 21.515V2.48535ZM22.2391 21.6309C22.2375 21.6332 22.2374 21.6329 22.2393 21.6311L22.3322 21.695L22.2391 21.6309Z" stroke="#231F20" stroke-width="0.8"/>
</svg>
