<svg width="48" height="48" viewBox="0 0 48 48" fill="none" xmlns="http://www.w3.org/2000/svg">
<circle cx="24" cy="24" r="24" fill="#ADCABD"/>
<path fill-rule="evenodd" clip-rule="evenodd" d="M12.5082 35.4911C12.57 35.552 12.6531 35.5861 12.74 35.5861C12.741 35.5861 12.7424 35.5861 12.7433 35.5861L35.3395 35.3577C35.4272 35.3569 35.5108 35.3212 35.5722 35.2584C35.6337 35.1956 35.6676 35.111 35.6666 35.0232L35.5146 22.3794C35.5131 22.2812 35.4682 22.1907 35.395 22.1296L35.3952 22.1292L32.1666 19.4443V12.664C32.1666 12.4815 32.0188 12.3334 31.836 12.3334H16.1635C15.9807 12.3334 15.8328 12.4814 15.8328 12.664L15.8329 19.3942L12.4524 22.2052L12.4529 22.2057C12.3782 22.2682 12.3328 22.3612 12.3333 22.4614L12.4095 35.2574C12.4098 35.3453 12.4453 35.4294 12.5082 35.4911ZM12.9988 23.1399L20.467 28.9659L13.0669 34.5918L12.9988 23.1399ZM34.8614 23.0707L34.9975 34.3639L27.6582 28.9147L34.8614 23.0707ZM26.9271 29.1953L34.3494 34.7064L13.7343 34.9147L21.2057 29.2348L24.0062 27.2004L26.9271 29.1953ZM34.6629 22.3803L32.1666 24.4055V20.3043L34.6629 22.3803ZM31.5054 12.9946V19.6884L31.4728 19.7274L31.5054 19.7543V24.942L27.1023 28.5144L24.1866 26.5231C24.0713 26.4444 23.9187 26.4465 23.8058 26.5286L21.0158 28.5555L16.4941 25.028V12.9946H31.5054ZM15.8329 24.5121L13.1911 22.4512L15.8329 20.2542V24.5121ZM19.3574 20.9624C19.1746 20.9624 19.0268 20.8144 19.0268 20.6318V17.2499C19.0268 17.0737 19.1653 16.9284 19.3409 16.9196L23.078 16.7327L26.9247 14.6829C27.0272 14.6283 27.151 14.6314 27.2506 14.6913C27.3498 14.7511 27.4107 14.8588 27.4107 14.9749L27.4088 17.2764L27.9312 17.2764C28.8098 17.2764 29.5244 17.9909 29.5244 18.8693C29.5244 19.7759 28.8245 20.486 27.9313 20.486H27.4065L27.4046 22.9184C27.4046 23.0368 27.3414 23.1462 27.2383 23.205C27.1873 23.2342 27.1307 23.2488 27.074 23.2488C27.0163 23.2488 26.9588 23.2336 26.9068 23.2034L23.4989 21.2084V23.4183C23.4989 24.0471 22.9874 24.5587 22.3582 24.5587H21.7866C21.1579 24.5587 20.6464 24.0471 20.6464 23.4182V20.9624H19.3574ZM27.9313 17.9377C28.4452 17.9377 28.8631 18.3556 28.8631 18.8693C28.8632 19.4051 28.4536 19.8248 27.9312 19.8248L27.407 19.8247L27.4084 17.9377H27.9313ZM22.3582 23.8973H21.7867C21.5227 23.8973 21.3077 23.6824 21.3077 23.4183L21.3078 20.9624H22.8377V23.4182C22.8376 23.6824 22.6226 23.8974 22.3582 23.8973ZM26.7439 22.3418L23.4988 20.4422V19.7744V17.2578L26.7491 15.5257L26.7439 22.3418ZM19.6881 17.5644L22.8376 17.4069V19.7744V20.3012H19.6881V17.5644Z" fill="#005932" stroke="#005932" stroke-width="0.2"/>
</svg>
