<svg width="130" height="36" viewBox="0 0 130 36" fill="none" xmlns="http://www.w3.org/2000/svg">
<g clip-path="url(#clip0_1146_10286)">
<path d="M47.2155 18.7131L43.3474 22.0106V27.9631H36.7168V4.40625H43.3474V15.4012L56.1012 4.40625H63.508L51.5762 14.9094L64.2099 27.9631H56.4293L47.2155 18.7131Z" fill="#231F20"/>
<mask id="mask0_1146_10286" style="mask-type:luminance" maskUnits="userSpaceOnUse" x="65" y="9" width="25" height="26">
<path d="M65.4399 9.44043H89.5999V34.4829H65.4399V9.44043Z" fill="white"/>
</mask>
<g mask="url(#mask0_1146_10286)">
<path d="M89.5976 18.9084C89.5976 24.5921 84.7889 28.2321 78.562 28.2321C75.7989 28.2321 73.5439 27.5309 71.9014 26.039V34.4834H65.4795V9.86773H71.6176V11.9559C73.2151 10.3596 75.6045 9.58398 78.5764 9.58398C84.7889 9.58398 89.5976 13.224 89.5976 18.9084ZM83.1014 18.9084C83.1014 15.7752 80.6676 13.8952 77.4564 13.8952C74.2457 13.8952 71.8114 15.7752 71.8114 18.9084C71.8114 22.0409 74.2457 23.9209 77.4564 23.9209C80.6676 23.9209 83.1014 22.0409 83.1014 18.9084Z" fill="#231F20"/>
</g>
<mask id="mask1_1146_10286" style="mask-type:luminance" maskUnits="userSpaceOnUse" x="92" y="1" width="9" height="27">
<path d="M92.1602 1.48242H100.32V27.9999H92.1602V1.48242Z" fill="white"/>
</mask>
<g mask="url(#mask1_1146_10286)">
<path d="M92.271 4.40617C92.271 2.76555 93.8691 1.48242 96.2585 1.48242C98.6479 1.48242 100.246 2.69055 100.246 4.3018C100.246 6.04742 98.6479 7.33055 96.2585 7.33055C93.8841 7.33055 92.271 6.06242 92.271 4.40617ZM93.0629 9.8668H99.4841V27.963H93.0629V9.8668Z" fill="#231F20"/>
</g>
<path d="M121.87 27.9631L114.91 19.7875L108.085 27.9631H100.425L111.087 15.9831L100.962 4.40625H108.534L115.164 12.045L121.66 4.40625H128.859L118.823 15.7744L129.56 27.9481H121.87V27.9631Z" fill="#231F20"/>
<path d="M21.4246 27.9485H27.0846L16.3471 15.7597L26.3977 4.3916H19.5577L10.5083 15.9685L21.4246 27.9485Z" fill="#19B087"/>
<path d="M6.95393 19.6836L0.0395508 27.9636H13.8233L6.95393 19.6836Z" fill="#19B087"/>
<path d="M6.92357 12.6716L13.8379 4.3916H0.0541992L6.92357 12.6716Z" fill="#19B087"/>
<path d="M26.577 9.56836L25.382 10.7621C28.3538 13.7309 28.3538 18.5646 25.382 21.5484L26.577 22.7415C30.2207 19.1015 30.2207 13.2084 26.577 9.56836ZM21.7832 14.3571L19.9907 16.1477L21.7832 17.9377C22.7838 16.9684 22.7838 15.3571 21.7832 14.3571ZM24.1876 11.9702L22.9926 13.164C24.6501 14.8196 24.6501 17.5052 22.9926 19.1465L24.1876 20.3396C26.502 18.0271 26.502 14.2827 24.1876 11.9702Z" fill="#D7890D"/>
</g>
<defs>
<clipPath id="clip0_1146_10286">
<rect width="129.6" height="36" fill="white"/>
</clipPath>
</defs>
</svg>
