<svg width="108" height="30" viewBox="0 0 108 30" fill="none" xmlns="http://www.w3.org/2000/svg">
<path d="M39.3466 15.5943L36.1232 18.3422V23.3026H30.5977V3.67188H36.1232V12.8344L46.7513 3.67188H52.9237L42.9805 12.4245L53.5086 23.3026H47.0247L39.3466 15.5943Z" fill="white"/>
<mask id="mask0_1333_25097" style="mask-type:luminance" maskUnits="userSpaceOnUse" x="54" y="7" width="21" height="22">
<path d="M54.5332 7.86719H74.6665V28.7359H54.5332V7.86719Z" fill="white"/>
</mask>
<g mask="url(#mask0_1333_25097)">
<path d="M74.6648 15.7547C74.6648 20.4911 70.6576 23.5245 65.4685 23.5245C63.1659 23.5245 61.2867 22.9401 59.918 21.6969V28.7339H54.5664V8.22083H59.6815V9.96094C61.0128 8.63073 63.0039 7.98438 65.4805 7.98438C70.6576 7.98438 74.6648 11.0177 74.6648 15.7547ZM69.2513 15.7547C69.2513 13.1438 67.2232 11.5771 64.5471 11.5771C61.8716 11.5771 59.843 13.1438 59.843 15.7547C59.843 18.3651 61.8716 19.9318 64.5471 19.9318C67.2232 19.9318 69.2513 18.3651 69.2513 15.7547Z" fill="white"/>
</g>
<mask id="mask1_1333_25097" style="mask-type:luminance" maskUnits="userSpaceOnUse" x="76" y="1" width="8" height="23">
<path d="M76.7998 1.23438H83.5998V23.3323H76.7998V1.23438Z" fill="white"/>
</mask>
<g mask="url(#mask1_1333_25097)">
<path d="M76.8916 3.67083C76.8916 2.30365 78.2234 1.23438 80.2145 1.23438C82.2057 1.23438 83.5374 2.24115 83.5374 3.58385C83.5374 5.03854 82.2057 6.10781 80.2145 6.10781C78.2359 6.10781 76.8916 5.05104 76.8916 3.67083ZM77.5515 8.22135H82.9025V23.3016H77.5515V8.22135Z" fill="white"/>
</g>
<path d="M101.558 23.3026L95.7589 16.4896L90.0714 23.3026H83.6875L92.5729 13.3193L84.1354 3.67188H90.4448L95.9703 10.0375L101.384 3.67188H107.382L99.0193 13.1453L107.967 23.2901H101.558V23.3026Z" fill="white"/>
<path d="M17.8537 23.287H22.5704L13.6225 13.1297L21.998 3.65625H16.298L8.75684 13.3036L17.8537 23.287Z" fill="#383838"/>
<path d="M5.79518 16.4062L0.0332031 23.3063H11.5197L5.79518 16.4062Z" fill="#383838"/>
<path d="M5.7694 10.5563L11.5314 3.65625H0.0449219L5.7694 10.5563Z" fill="#383838"/>
<path d="M22.1477 7.96875L21.1519 8.96354C23.6285 11.4375 23.6285 15.4656 21.1519 17.9521L22.1477 18.9464C25.1842 15.913 25.1842 11.0021 22.1477 7.96875ZM18.1529 11.9594L16.6592 13.4516L18.1529 14.9432C18.9868 14.1354 18.9868 12.7927 18.1529 11.9594ZM20.1566 9.97031L19.1607 10.9651C20.542 12.3448 20.542 14.5828 19.1607 15.9505L20.1566 16.9448C22.0852 15.0177 22.0852 11.8974 20.1566 9.97031Z" fill="#D7890D"/>
</svg>
