<svg width="24" height="24" viewBox="0 0 24 24" fill="none" xmlns="http://www.w3.org/2000/svg">
<path d="M19.44 4.75544C19.44 3.97319 18.602 3.26126 17.0809 2.74929C15.6406 2.26588 13.7354 2 11.7189 2C9.70243 2 7.79726 2.26588 6.3591 2.74929C4.83802 3.26126 4 3.97319 4 4.75544V19.2446C4 20.029 4.83583 20.7409 6.35474 21.2529C7.79071 21.7341 9.69589 22 11.7189 22C13.7419 22 15.6471 21.7341 17.0831 21.2507C18.602 20.7409 19.4378 20.0268 19.4378 19.2424L19.44 4.75544ZM11.7189 2.4878C15.9832 2.4878 18.9555 3.68315 18.9555 4.75544C18.9555 5.82773 15.9832 7.02307 11.7189 7.02307C7.45463 7.02307 4.4823 5.82773 4.4823 4.75544C4.4823 3.68315 7.45463 2.4878 11.7189 2.4878ZM16.9303 20.7893C15.5424 21.2551 13.6917 21.5122 11.7189 21.5122C9.74608 21.5122 7.89546 21.2551 6.5075 20.7893C5.23956 20.363 4.4823 19.7851 4.4823 19.2446V15.408C4.87948 15.7926 5.51017 16.1397 6.35474 16.4232C7.79071 16.9044 9.69589 17.1703 11.7189 17.1703C13.7419 17.1703 15.6471 16.9044 17.0831 16.421C17.9255 16.1376 18.5583 15.7926 18.9533 15.4058V19.2424C18.9555 19.7851 18.1983 20.363 16.9303 20.7893ZM16.9303 15.9596C15.5424 16.4254 13.6917 16.6825 11.7189 16.6825C9.74608 16.6825 7.89546 16.4254 6.5075 15.9596C5.23956 15.5333 4.4823 14.9554 4.4823 14.4149V10.5783C4.87948 10.9629 5.51017 11.31 6.35474 11.5935C7.79071 12.0747 9.69589 12.3406 11.7189 12.3406C13.7419 12.3406 15.6471 12.0747 17.0831 11.5913C17.9255 11.3078 18.5583 10.9629 18.9533 10.5761V14.4127C18.9555 14.9554 18.1983 15.5333 16.9303 15.9596ZM16.9303 11.1299C15.5424 11.5957 13.6917 11.8528 11.7189 11.8528C9.74608 11.8528 7.89546 11.5957 6.5075 11.1299C5.23956 10.7036 4.4823 10.1257 4.4823 9.58514V5.74643C4.87948 6.13096 5.51236 6.47814 6.35692 6.76159C7.79508 7.245 9.70025 7.51088 11.7167 7.51088C13.7332 7.51088 15.6384 7.245 17.0765 6.76159C17.9211 6.47814 18.5562 6.13096 18.9512 5.74643V9.58514C18.9555 10.1257 18.1983 10.7036 16.9303 11.1299Z" fill="#231F20" stroke="#231F20" stroke-width="0.4"/>
</svg>
