<svg width="105" height="42" viewBox="0 0 105 42" fill="none" xmlns="http://www.w3.org/2000/svg">
<path d="M23.131 29.6H24.019V37.232H28.723V38H23.131V29.6ZM30.0174 31.688H30.8694V38H30.0174V31.688ZM30.4494 30.308C30.2734 30.308 30.1254 30.248 30.0054 30.128C29.8854 30.008 29.8254 29.864 29.8254 29.696C29.8254 29.536 29.8854 29.396 30.0054 29.276C30.1254 29.156 30.2734 29.096 30.4494 29.096C30.6254 29.096 30.7734 29.156 30.8934 29.276C31.0134 29.388 31.0734 29.524 31.0734 29.684C31.0734 29.86 31.0134 30.008 30.8934 30.128C30.7734 30.248 30.6254 30.308 30.4494 30.308ZM38.5441 31.688L35.7361 38H34.8601L32.0641 31.688H32.9521L35.3161 37.064L37.7041 31.688H38.5441ZM45.0642 35.108H39.7842C39.8322 35.764 40.0842 36.296 40.5402 36.704C40.9962 37.104 41.5722 37.304 42.2682 37.304C42.6602 37.304 43.0202 37.236 43.3482 37.1C43.6762 36.956 43.9602 36.748 44.2002 36.476L44.6802 37.028C44.4002 37.364 44.0482 37.62 43.6242 37.796C43.2082 37.972 42.7482 38.06 42.2442 38.06C41.5962 38.06 41.0202 37.924 40.5162 37.652C40.0202 37.372 39.6322 36.988 39.3522 36.5C39.0722 36.012 38.9322 35.46 38.9322 34.844C38.9322 34.228 39.0642 33.676 39.3282 33.188C39.6002 32.7 39.9682 32.32 40.4322 32.048C40.9042 31.776 41.4322 31.64 42.0162 31.64C42.6002 31.64 43.1242 31.776 43.5882 32.048C44.0522 32.32 44.4162 32.7 44.6802 33.188C44.9442 33.668 45.0762 34.22 45.0762 34.844L45.0642 35.108ZM42.0162 32.372C41.4082 32.372 40.8962 32.568 40.4802 32.96C40.0722 33.344 39.8402 33.848 39.7842 34.472H44.2602C44.2042 33.848 43.9682 33.344 43.5522 32.96C43.1442 32.568 42.6322 32.372 42.0162 32.372ZM55.399 35.756H50.719L49.711 38H48.787L52.627 29.6H53.503L57.343 38H56.407L55.399 35.756ZM55.075 35.036L53.059 30.524L51.043 35.036H55.075ZM58.5526 29.096H59.4046V38H58.5526V29.096ZM67.2712 35.108H61.9912C62.0392 35.764 62.2912 36.296 62.7472 36.704C63.2032 37.104 63.7792 37.304 64.4752 37.304C64.8672 37.304 65.2272 37.236 65.5552 37.1C65.8832 36.956 66.1672 36.748 66.4072 36.476L66.8872 37.028C66.6072 37.364 66.2552 37.62 65.8312 37.796C65.4152 37.972 64.9552 38.06 64.4512 38.06C63.8032 38.06 63.2272 37.924 62.7232 37.652C62.2272 37.372 61.8392 36.988 61.5592 36.5C61.2792 36.012 61.1392 35.46 61.1392 34.844C61.1392 34.228 61.2712 33.676 61.5352 33.188C61.8072 32.7 62.1752 32.32 62.6392 32.048C63.1112 31.776 63.6392 31.64 64.2232 31.64C64.8072 31.64 65.3312 31.776 65.7952 32.048C66.2592 32.32 66.6232 32.7 66.8872 33.188C67.1512 33.668 67.2832 34.22 67.2832 34.844L67.2712 35.108ZM64.2232 32.372C63.6152 32.372 63.1032 32.568 62.6872 32.96C62.2792 33.344 62.0472 33.848 61.9912 34.472H66.4672C66.4112 33.848 66.1752 33.344 65.7592 32.96C65.3512 32.568 64.8392 32.372 64.2232 32.372ZM69.8334 32.924C70.0334 32.5 70.3294 32.18 70.7214 31.964C71.1214 31.748 71.6134 31.64 72.1974 31.64V32.468L71.9934 32.456C71.3294 32.456 70.8094 32.66 70.4334 33.068C70.0574 33.476 69.8694 34.048 69.8694 34.784V38H69.0174V31.688H69.8334V32.924ZM77.3336 37.616C77.1736 37.76 76.9736 37.872 76.7336 37.952C76.5016 38.024 76.2576 38.06 76.0016 38.06C75.4096 38.06 74.9536 37.9 74.6336 37.58C74.3136 37.26 74.1536 36.808 74.1536 36.224V32.408H73.0256V31.688H74.1536V30.308H75.0056V31.688H76.9256V32.408H75.0056V36.176C75.0056 36.552 75.0976 36.84 75.2816 37.04C75.4736 37.232 75.7456 37.328 76.0976 37.328C76.2736 37.328 76.4416 37.3 76.6016 37.244C76.7696 37.188 76.9136 37.108 77.0336 37.004L77.3336 37.616ZM80.5766 38.06C80.0646 38.06 79.5726 37.988 79.1006 37.844C78.6366 37.692 78.2726 37.504 78.0086 37.28L78.3926 36.608C78.6566 36.816 78.9886 36.988 79.3886 37.124C79.7886 37.252 80.2046 37.316 80.6366 37.316C81.2126 37.316 81.6366 37.228 81.9086 37.052C82.1886 36.868 82.3286 36.612 82.3286 36.284C82.3286 36.052 82.2526 35.872 82.1006 35.744C81.9486 35.608 81.7566 35.508 81.5246 35.444C81.2926 35.372 80.9846 35.304 80.6006 35.24C80.0886 35.144 79.6766 35.048 79.3646 34.952C79.0526 34.848 78.7846 34.676 78.5606 34.436C78.3446 34.196 78.2366 33.864 78.2366 33.44C78.2366 32.912 78.4566 32.48 78.8966 32.144C79.3366 31.808 79.9486 31.64 80.7326 31.64C81.1406 31.64 81.5486 31.696 81.9566 31.808C82.3646 31.912 82.7006 32.052 82.9646 32.228L82.5926 32.912C82.0726 32.552 81.4526 32.372 80.7326 32.372C80.1886 32.372 79.7766 32.468 79.4966 32.66C79.2246 32.852 79.0886 33.104 79.0886 33.416C79.0886 33.656 79.1646 33.848 79.3166 33.992C79.4766 34.136 79.6726 34.244 79.9046 34.316C80.1366 34.38 80.4566 34.448 80.8646 34.52C81.3686 34.616 81.7726 34.712 82.0766 34.808C82.3806 34.904 82.6406 35.068 82.8566 35.3C83.0726 35.532 83.1806 35.852 83.1806 36.26C83.1806 36.812 82.9486 37.252 82.4846 37.58C82.0286 37.9 81.3926 38.06 80.5766 38.06Z" fill="#231F20"/>
<path fill-rule="evenodd" clip-rule="evenodd" d="M51.8466 20.141C51.8686 20.1511 51.8906 20.1639 51.9117 20.1786L55.1714 22.0605C55.682 22.3557 56.3484 22.1788 56.6445 21.6655H56.6454L57.0139 21.0274C57.1542 20.7854 57.1881 20.5086 57.1304 20.2528C57.0735 19.9971 56.9232 19.7624 56.6949 19.6038L45.0249 12.8672C44.7755 12.7517 44.4987 12.7407 44.2484 12.8186C43.9991 12.8966 43.7773 13.0634 43.6379 13.3045L43.2685 13.9443C42.9733 14.4549 43.1503 15.1213 43.6636 15.4174V15.4183L51.8466 20.141ZM57.4291 8.30483C57.3099 8.11874 57.364 7.87215 57.5492 7.75298C57.7353 7.63382 57.9819 7.6879 58.101 7.87307C58.6254 8.68891 58.9884 9.62207 59.1497 10.579C59.1864 10.7972 59.0388 11.0025 58.8216 11.0392C58.6034 11.0759 58.3981 10.9283 58.3614 10.711C58.2184 9.85578 57.8984 9.03453 57.4291 8.30483ZM59.6749 4.27947C59.7795 4.09797 60.0086 4.02739 60.1984 4.12272C60.4037 4.22538 60.4798 4.48113 60.3652 4.67914H60.3661C60.0022 5.30981 59.3972 5.72139 58.7289 5.85614C59.7208 6.78564 60.4083 7.96541 60.7493 9.23771C61.2241 11.0106 61.0261 12.965 60.0407 14.6726L60.0398 14.6735H60.0407L57.4354 19.1862C58.0029 19.7802 58.1275 20.6932 57.7068 21.4229L57.3373 22.0637H57.3383C56.8222 22.9574 55.6726 23.2663 54.7771 22.7493L51.809 21.0352C50.8318 22.3331 49.0141 22.7136 47.6023 21.8886L47.6014 21.8877V21.8886C46.8259 21.4412 46.3052 20.7216 46.0907 19.9205C45.9083 19.2403 45.9468 18.5015 46.2374 17.8186L43.2684 16.1044V16.1053C42.3746 15.5892 42.0657 14.4397 42.5827 13.5441L42.9521 12.9043C43.3738 12.1746 44.2245 11.8235 45.0247 12.0197L47.6161 7.53071C47.6244 7.51238 47.6345 7.49588 47.6455 7.47938C48.6327 5.78629 50.2196 4.64693 51.984 4.17384C53.2564 3.83285 54.6222 3.83834 55.9229 4.23251C55.4728 2.89234 56.2493 1.4477 57.6124 1.08279C58.2091 0.923288 58.8966 0.988373 59.4723 1.32938V1.32846C59.6401 1.42563 59.7977 1.54388 59.9416 1.68138C60.1002 1.83355 60.1066 2.08564 59.9545 2.24421C59.8023 2.40277 59.5502 2.40921 59.3916 2.25704C58.9773 1.86104 58.376 1.70611 57.8196 1.85555C56.9377 2.09205 56.4152 2.99681 56.6517 3.87865C56.758 4.27648 57.012 4.634 57.3878 4.86315C57.7847 5.09507 58.2302 5.16566 58.6757 5.04649C59.0846 4.9374 59.4512 4.67156 59.6795 4.27649L59.6749 4.27947ZM59.8574 3.10521L59.8931 3.37013C59.9041 3.59013 60.092 3.75972 60.312 3.74872C60.5321 3.73771 60.7016 3.5498 60.6906 3.32979L60.6393 2.93653C60.5926 2.72019 60.3799 2.58361 60.1636 2.63036C59.9481 2.67711 59.8106 2.88981 59.8574 3.10521ZM56.7764 18.7299L45.7461 12.3617L48.3183 7.9077C49.1937 6.39153 50.6099 5.37117 52.1875 4.94877C53.7559 4.52892 55.5132 4.70035 57.0174 5.57669C60.0627 7.35046 61.0948 11.251 59.3494 14.2758H59.3485L56.7764 18.7299ZM46.9314 18.2239L51.1068 20.6347C50.7759 21.038 50.3331 21.3139 49.851 21.4432C48.5465 21.7924 47.2081 21.0187 46.8599 19.7161C46.7297 19.2331 46.7471 18.7116 46.9314 18.2239Z" fill="#231F20" stroke="#231F20" stroke-width="0.2"/>
</svg>
