<svg width="25" height="24" viewBox="0 0 25 24" fill="none" xmlns="http://www.w3.org/2000/svg">
<path fill-rule="evenodd" clip-rule="evenodd" d="M11.8466 20.141C11.8686 20.1511 11.8906 20.1639 11.9117 20.1786L15.1714 22.0605C15.682 22.3557 16.3484 22.1788 16.6445 21.6655H16.6454L17.0139 21.0274C17.1542 20.7854 17.1881 20.5086 17.1304 20.2528C17.0735 19.9971 16.9232 19.7624 16.6949 19.6038L5.02487 12.8672C4.77553 12.7517 4.49869 12.7407 4.24844 12.8186C3.99911 12.8966 3.77728 13.0634 3.63793 13.3045L3.26852 13.9443C2.97335 14.4549 3.15026 15.1213 3.6636 15.4174V15.4183L11.8466 20.141ZM17.4291 8.30483C17.3099 8.11874 17.364 7.87215 17.5492 7.75298C17.7353 7.63382 17.9819 7.6879 18.101 7.87307C18.6254 8.68891 18.9884 9.62207 19.1497 10.579C19.1864 10.7972 19.0388 11.0025 18.8216 11.0392C18.6034 11.0759 18.3981 10.9283 18.3614 10.711C18.2184 9.85578 17.8984 9.03453 17.4291 8.30483ZM19.6749 4.27947C19.7795 4.09797 20.0086 4.02739 20.1984 4.12272C20.4037 4.22538 20.4798 4.48113 20.3652 4.67914H20.3661C20.0022 5.30981 19.3972 5.72139 18.7289 5.85614C19.7208 6.78564 20.4083 7.96541 20.7493 9.23771C21.2241 11.0106 21.0261 12.965 20.0407 14.6726L20.0398 14.6735H20.0407L17.4354 19.1862C18.0029 19.7802 18.1275 20.6932 17.7068 21.4229L17.3373 22.0637H17.3383C16.8222 22.9574 15.6726 23.2663 14.7771 22.7493L11.809 21.0352C10.8318 22.3331 9.01409 22.7136 7.60233 21.8886L7.60141 21.8877V21.8886C6.8259 21.4412 6.30524 20.7216 6.09073 19.9205C5.90832 19.2403 5.94682 18.5015 6.2374 17.8186L3.26838 16.1044V16.1053C2.37462 15.5892 2.0657 14.4397 2.5827 13.5441L2.95211 12.9043C3.37379 12.1746 4.22446 11.8235 5.02471 12.0197L7.61615 7.53071C7.6244 7.51238 7.63448 7.49588 7.64548 7.47938C8.63273 5.78629 10.2196 4.64693 11.984 4.17384C13.2564 3.83285 14.6222 3.83834 15.9229 4.23251C15.4728 2.89234 16.2493 1.4477 17.6124 1.08279C18.2091 0.923288 18.8966 0.988373 19.4723 1.32938V1.32846C19.6401 1.42563 19.7977 1.54388 19.9416 1.68138C20.1002 1.83355 20.1066 2.08564 19.9545 2.24421C19.8023 2.40277 19.5502 2.40921 19.3916 2.25704C18.9773 1.86104 18.376 1.70611 17.8196 1.85555C16.9377 2.09205 16.4152 2.99681 16.6517 3.87865C16.758 4.27648 17.012 4.634 17.3878 4.86315C17.7847 5.09507 18.2302 5.16566 18.6757 5.04649C19.0846 4.9374 19.4512 4.67156 19.6795 4.27649L19.6749 4.27947ZM19.8574 3.10521L19.8931 3.37013C19.9041 3.59013 20.092 3.75972 20.312 3.74872C20.5321 3.73771 20.7016 3.5498 20.6906 3.32979L20.6393 2.93653C20.5926 2.72019 20.3799 2.58361 20.1636 2.63036C19.9481 2.67711 19.8106 2.88981 19.8574 3.10521ZM16.7764 18.7299L5.74605 12.3617L8.31825 7.9077C9.19368 6.39153 10.6099 5.37117 12.1875 4.94877C13.7559 4.52892 15.5132 4.70035 17.0174 5.57669C20.0627 7.35046 21.0948 11.251 19.3494 14.2758H19.3485L16.7764 18.7299ZM6.93136 18.2239L11.1068 20.6347C10.7759 21.038 10.3331 21.3139 9.85097 21.4432C8.54654 21.7924 7.20813 21.0187 6.85988 19.7161C6.72971 19.2331 6.74711 18.7116 6.93136 18.2239Z" fill="#231F20" stroke="#231F20" stroke-width="0.2"/>
</svg>
