<svg width="48" height="48" viewBox="0 0 48 48" fill="none" xmlns="http://www.w3.org/2000/svg">
<circle cx="24" cy="24" r="24" fill="#ADCABD"/>
<path fill-rule="evenodd" clip-rule="evenodd" d="M34.779 26.2794C33.8803 24.5928 32.5532 22.0986 32.3287 21.6686C32.3068 19.1078 31.2267 16.639 29.3579 14.8841C27.4433 13.0862 24.9394 12.1878 22.3063 12.3526C17.782 12.6371 14.0183 16.2455 13.5517 20.7458C13.3031 23.142 13.957 25.5038 15.394 27.4093V34.8208C15.394 35.2873 15.7735 35.6667 16.2397 35.6667H24.5083C24.9745 35.6667 25.354 35.2873 25.354 34.8208V32.1526H29.9042C30.791 32.1526 31.5206 31.4865 31.6013 30.6033L31.8682 27.6755H33.9402C34.2768 27.6755 34.5811 27.5032 34.7545 27.2148C34.9279 26.9266 34.9372 26.577 34.7793 26.2797L34.779 26.2794ZM34.189 26.8749C34.1635 26.9173 34.0884 27.0155 33.9402 27.0155H31.2657L30.9439 30.5434C30.8946 31.0845 30.4475 31.4927 29.9042 31.4927H24.694V34.8208C24.694 34.9233 24.6107 35.0068 24.5083 35.0068H16.2397C16.1373 35.0068 16.054 34.9233 16.054 34.8208V27.1852L15.985 27.0959C14.6042 25.3098 13.9732 23.0786 14.2081 20.8138C14.6418 16.6303 18.1412 13.2758 22.3478 13.0113C22.5396 12.9992 22.7302 12.9932 22.9203 12.9932C25.1577 12.9932 27.2653 13.8241 28.9061 15.365C30.6879 17.0382 31.6691 19.3053 31.6691 21.7483L31.6691 21.7542C31.6701 21.8484 31.72 21.942 34.1964 26.5894C34.266 26.7202 34.2143 26.8327 34.189 26.8749ZM27.8946 20.2857C27.8029 20.2857 27.7246 20.223 27.6998 20.13C27.5843 19.6956 27.4114 19.278 27.1859 18.8888C27.1372 18.8048 27.1482 18.7048 27.2129 18.6398C27.5485 18.3042 27.5485 17.7581 27.2129 17.4225L26.7863 16.9958C26.461 16.6707 25.8934 16.6708 25.5691 16.9957C25.5041 17.0606 25.4039 17.0715 25.3198 17.0229C24.9307 16.7975 24.5133 16.6244 24.0789 16.5088C23.9858 16.4839 23.9231 16.4056 23.9231 16.314C23.9231 15.8393 23.5369 15.4531 23.0621 15.4531H22.4587C21.984 15.4531 21.5978 15.8393 21.5978 16.314C21.5978 16.4056 21.5352 16.4839 21.4419 16.5088C21.0074 16.6244 20.5899 16.7975 20.201 17.0229C20.1169 17.0719 20.0168 17.0606 19.952 16.9958C19.6267 16.6707 19.0593 16.6707 18.7346 16.9958L18.3078 17.4225C17.9722 17.7581 17.9722 18.3042 18.3078 18.6398C18.3728 18.7048 18.3836 18.8048 18.3349 18.8889C18.1092 19.2785 17.9363 19.6961 17.8209 20.1299C17.7961 20.223 17.7178 20.2857 17.6262 20.2857C17.1515 20.2857 16.7653 20.6719 16.7653 21.1465V21.75C16.7653 22.2247 17.1515 22.6109 17.6262 22.6109C17.7178 22.6109 17.7961 22.6736 17.8209 22.7669C17.9363 23.2006 18.1092 23.618 18.3349 24.0078C18.3837 24.0919 18.3728 24.1918 18.3078 24.2567C17.9722 24.5923 17.9722 25.1385 18.3078 25.4741L18.7345 25.9009C19.0596 26.2262 19.6267 26.2264 19.9522 25.9007C20.0173 25.8363 20.1175 25.8253 20.201 25.8737C20.5905 26.0994 21.008 26.2724 21.4419 26.3878C21.5352 26.4126 21.5978 26.4909 21.5978 26.5826C21.5978 27.0572 21.984 27.4434 22.4587 27.4434H23.0621C23.5369 27.4434 23.9231 27.0572 23.9231 26.5826C23.9231 26.4909 23.9858 26.4126 24.0787 26.3878C24.5126 26.2724 24.9302 26.0994 25.3196 25.8738C25.4034 25.8249 25.5038 25.8358 25.5689 25.9011C25.9047 26.2362 26.4508 26.2363 26.7863 25.9009L27.2129 25.4741C27.5485 25.1385 27.5485 24.5923 27.2129 24.2567C27.148 24.1918 27.1372 24.0917 27.1859 24.0078C27.4114 23.6187 27.5843 23.2011 27.6998 22.7669C27.7246 22.6736 27.8029 22.6109 27.8946 22.6109C28.3694 22.6109 28.7556 22.2247 28.7556 21.75V21.1465C28.7556 20.6719 28.3694 20.2857 27.8946 20.2857ZM28.0957 21.75C28.0957 21.8609 28.0055 21.951 27.8946 21.951C27.5057 21.951 27.1633 22.2166 27.0621 22.597C26.9616 22.975 26.8111 23.3382 26.6149 23.6768C26.4172 24.0178 26.4711 24.4481 26.7463 24.7233C26.8246 24.8016 26.8246 24.9292 26.7463 25.0075L26.3197 25.4341C26.2411 25.5125 26.1135 25.5123 26.0355 25.4343C25.7605 25.1594 25.3303 25.1055 24.9889 25.3027C24.6499 25.4992 24.2866 25.6497 23.9091 25.7501C23.5288 25.8514 23.2632 26.1937 23.2632 26.5826C23.2632 26.6934 23.1729 26.7835 23.0621 26.7835H22.4587C22.3478 26.7835 22.2578 26.6934 22.2578 26.5826C22.2578 26.1937 21.9921 25.8513 21.6117 25.7501C21.234 25.6496 20.8709 25.4991 20.5317 25.3025C20.3945 25.2231 20.2427 25.1844 20.0925 25.1844C19.8694 25.1844 19.6496 25.27 19.4854 25.4343C19.4094 25.51 19.2773 25.5104 19.2012 25.4343L18.7744 25.0075C18.6961 24.9292 18.6961 24.8016 18.7743 24.7235C19.0496 24.4484 19.1038 24.0179 18.9059 23.677C18.7095 23.3379 18.559 22.9745 18.4586 22.597C18.3575 22.2166 18.0151 21.951 17.6262 21.951C17.5153 21.951 17.4252 21.8609 17.4252 21.75V21.1465C17.4252 21.0357 17.5153 20.9456 17.6262 20.9456C18.0151 20.9456 18.3573 20.6799 18.4586 20.2995C18.559 19.9222 18.7095 19.5589 18.9059 19.2197C19.1036 18.8788 19.0496 18.4484 18.7744 18.1733C18.6961 18.095 18.6961 17.9673 18.7744 17.889L19.2014 17.4624C19.2771 17.3864 19.4094 17.3867 19.4854 17.4624C19.7606 17.7378 20.1913 17.7919 20.5319 17.5939C20.8704 17.3978 21.2337 17.2472 21.6117 17.1465C21.9921 17.0453 22.2578 16.7029 22.2578 16.314C22.2578 16.2031 22.3478 16.1131 22.4587 16.1131H23.0621C23.1729 16.1131 23.2632 16.2031 23.2632 16.314C23.2632 16.7029 23.5288 17.0451 23.9091 17.1465C24.287 17.2472 24.6502 17.3976 24.9889 17.5939C25.3301 17.7917 25.7603 17.7373 26.0357 17.4624C26.1114 17.3864 26.2437 17.3867 26.3197 17.4624L26.7463 17.889C26.8246 17.9673 26.8246 18.095 26.7462 18.1734C26.4711 18.4486 26.4172 18.8789 26.6149 19.2197C26.8111 19.5584 26.9616 19.9217 27.0621 20.2997C27.1635 20.6799 27.5057 20.9456 27.8946 20.9456C28.0055 20.9456 28.0957 21.0357 28.0957 21.1465V21.75ZM20.379 21.4483C20.379 20.1352 21.4474 19.067 22.7605 19.067C24.0736 19.067 25.1418 20.1352 25.1418 21.4483C25.1418 22.7614 24.0736 23.8296 22.7605 23.8296C21.4474 23.8296 20.379 22.7614 20.379 21.4483ZM21.0389 21.4483C21.0389 22.3974 21.8112 23.1696 22.7605 23.1696C23.7096 23.1696 24.4818 22.3974 24.4818 21.4483C24.4818 20.4991 23.7096 19.7269 22.7605 19.7269C21.8112 19.7269 21.0389 20.4991 21.0389 21.4483Z" fill="#005932"/>
<path d="M32.3287 21.6686L32.2287 21.6694L32.2289 21.6935L32.2401 21.7148L32.3287 21.6686ZM34.779 26.2794L34.6907 26.3264L34.6977 26.3396L34.7083 26.3501L34.779 26.2794ZM29.3579 14.8841L29.2894 14.957L29.2894 14.957L29.3579 14.8841ZM22.3063 12.3526L22.3 12.2528L22.3 12.2528L22.3063 12.3526ZM13.5517 20.7458L13.6511 20.7562L13.6511 20.7561L13.5517 20.7458ZM15.394 27.4093H15.494V27.3758L15.4739 27.3491L15.394 27.4093ZM25.354 32.1526V32.0526H25.254V32.1526H25.354ZM31.6013 30.6033L31.7009 30.6124L31.7009 30.6124L31.6013 30.6033ZM31.8682 27.6755V27.5755H31.7769L31.7687 27.6664L31.8682 27.6755ZM34.7545 27.2148L34.6688 27.1633L34.6688 27.1633L34.7545 27.2148ZM34.7793 26.2797L34.8676 26.2328L34.8606 26.2196L34.85 26.209L34.7793 26.2797ZM34.189 26.8749L34.2747 26.9264L34.2747 26.9263L34.189 26.8749ZM31.2657 27.0155V26.9155H31.1744L31.1661 27.0065L31.2657 27.0155ZM30.9439 30.5434L30.8443 30.5343L30.8443 30.5343L30.9439 30.5434ZM24.694 31.4927V31.3927H24.594V31.4927H24.694ZM16.054 27.1852H16.154V27.1511L16.1331 27.1241L16.054 27.1852ZM15.985 27.0959L16.0642 27.0348L16.0641 27.0348L15.985 27.0959ZM14.2081 20.8138L14.3075 20.8241L14.3075 20.8241L14.2081 20.8138ZM22.3478 13.0113L22.3541 13.1111L22.3541 13.1111L22.3478 13.0113ZM28.9061 15.365L28.8377 15.4379L28.8377 15.4379L28.9061 15.365ZM31.6691 21.7483H31.5691V21.7487L31.6691 21.7483ZM31.6691 21.7542L31.5691 21.7545L31.5691 21.7552L31.6691 21.7542ZM34.1964 26.5894L34.2847 26.5424L34.2846 26.5424L34.1964 26.5894ZM27.6998 20.13L27.6032 20.1557L27.6032 20.1558L27.6998 20.13ZM27.1859 18.8888L27.2724 18.8386L27.2724 18.8386L27.1859 18.8888ZM27.2129 18.6398L27.1422 18.5691L27.1421 18.5692L27.2129 18.6398ZM26.7863 16.9958L26.857 16.9251L26.857 16.9251L26.7863 16.9958ZM25.5691 16.9957L25.6398 17.0664L25.6398 17.0663L25.5691 16.9957ZM25.3198 17.0229L25.2697 17.1094L25.2697 17.1094L25.3198 17.0229ZM24.0789 16.5088L24.0531 16.6054L24.0532 16.6054L24.0789 16.5088ZM21.4419 16.5088L21.4162 16.4121L21.4162 16.4121L21.4419 16.5088ZM20.201 17.0229L20.1508 16.9364L20.1506 16.9365L20.201 17.0229ZM19.952 16.9958L20.0227 16.9251L20.0227 16.9251L19.952 16.9958ZM18.7346 16.9958L18.8053 17.0665L18.8054 17.0665L18.7346 16.9958ZM18.3078 17.4225L18.2371 17.3517L18.2371 17.3517L18.3078 17.4225ZM18.3078 18.6398L18.2371 18.7106L18.3078 18.6398ZM18.3349 18.8889L18.4214 18.9391L18.4215 18.939L18.3349 18.8889ZM17.8209 20.1299L17.9176 20.1556L17.9176 20.1556L17.8209 20.1299ZM17.8209 22.7669L17.7243 22.7926L17.8209 22.7669ZM18.3349 24.0078L18.2484 24.0579L18.2484 24.058L18.3349 24.0078ZM18.3078 24.2567L18.2371 24.186L18.3078 24.2567ZM18.3078 25.4741L18.3786 25.4034L18.3786 25.4034L18.3078 25.4741ZM18.7345 25.9009L18.8052 25.8302L18.8052 25.8302L18.7345 25.9009ZM19.9522 25.9007L19.8818 25.8297L19.8815 25.83L19.9522 25.9007ZM20.201 25.8737L20.2511 25.7871L20.2511 25.7871L20.201 25.8737ZM21.4419 26.3878L21.4676 26.2912L21.4676 26.2912L21.4419 26.3878ZM24.0787 26.3878L24.053 26.2912L24.0529 26.2912L24.0787 26.3878ZM25.3196 25.8738L25.3698 25.9604L25.3701 25.9602L25.3196 25.8738ZM25.5689 25.9011L25.4981 25.9717L25.4983 25.9718L25.5689 25.9011ZM26.7863 25.9009L26.857 25.9716L26.857 25.9716L26.7863 25.9009ZM27.2129 25.4741L27.1422 25.4034L27.1422 25.4034L27.2129 25.4741ZM27.1859 24.0078L27.0993 23.9576L27.0993 23.9576L27.1859 24.0078ZM27.6998 22.7669L27.7965 22.7926L27.7965 22.7926L27.6998 22.7669ZM27.0621 22.597L26.9655 22.5713V22.5713L27.0621 22.597ZM26.6149 23.6768L26.7014 23.727L26.7014 23.727L26.6149 23.6768ZM26.7463 24.7233L26.817 24.6526H26.817L26.7463 24.7233ZM26.3197 25.4341L26.3903 25.505L26.3904 25.5049L26.3197 25.4341ZM26.0355 25.4343L26.1062 25.3636L26.1062 25.3636L26.0355 25.4343ZM24.9889 25.3027L24.9389 25.2161L24.9387 25.2162L24.9889 25.3027ZM23.9091 25.7501L23.8834 25.6535L23.8833 25.6535L23.9091 25.7501ZM21.6117 25.7501L21.586 25.8467L21.586 25.8467L21.6117 25.7501ZM20.5317 25.3025L20.5819 25.216L20.5818 25.216L20.5317 25.3025ZM19.4854 25.4343L19.556 25.5052L19.5562 25.505L19.4854 25.4343ZM19.2012 25.4343L19.1305 25.505L19.2012 25.4343ZM18.7744 25.0075L18.8451 24.9368H18.8451L18.7744 25.0075ZM18.7743 24.7235L18.7036 24.6527L18.7036 24.6528L18.7743 24.7235ZM18.9059 23.677L18.8194 23.7271L18.8194 23.7272L18.9059 23.677ZM18.4586 22.597L18.5553 22.5713L18.5553 22.5713L18.4586 22.597ZM18.4586 20.2995L18.5553 20.3253L18.5553 20.3252L18.4586 20.2995ZM18.9059 19.2197L18.8194 19.1695L18.8194 19.1696L18.9059 19.2197ZM18.7744 18.1733L18.8451 18.1025L18.8451 18.1025L18.7744 18.1733ZM18.7744 17.889L18.7038 17.8183L18.7037 17.8183L18.7744 17.889ZM19.2014 17.4624L19.2721 17.5331L19.2723 17.533L19.2014 17.4624ZM19.4854 17.4624L19.5562 17.3917L19.556 17.3915L19.4854 17.4624ZM20.5319 17.5939L20.4818 17.5073L20.4816 17.5074L20.5319 17.5939ZM21.6117 17.1465L21.586 17.0498L21.586 17.0498L21.6117 17.1465ZM23.9091 17.1465L23.8833 17.2431L23.8833 17.2431L23.9091 17.1465ZM24.9889 17.5939L25.039 17.5074L25.039 17.5074L24.9889 17.5939ZM26.0357 17.4624L26.1063 17.5332L26.1065 17.533L26.0357 17.4624ZM26.3197 17.4624L26.3904 17.3917L26.3903 17.3915L26.3197 17.4624ZM26.7463 17.889L26.817 17.8183H26.817L26.7463 17.889ZM26.7462 18.1734L26.6755 18.1027L26.6754 18.1027L26.7462 18.1734ZM26.6149 19.2197L26.7014 19.1696L26.7014 19.1695L26.6149 19.2197ZM27.0621 20.2997L26.9655 20.3254L26.9655 20.3254L27.0621 20.2997ZM32.2401 21.7148C32.4648 22.1453 33.7922 24.6401 34.6907 26.3264L34.8672 26.2324C33.9684 24.5455 32.6415 22.0518 32.4174 21.6223L32.2401 21.7148ZM29.2894 14.957C31.1383 16.6932 32.207 19.1359 32.2287 21.6694L32.4287 21.6677C32.4066 19.0796 31.315 16.5848 29.4263 14.8112L29.2894 14.957ZM22.3125 12.4524C24.9183 12.2893 27.3951 13.1781 29.2894 14.957L29.4263 14.8112C27.4915 12.9943 24.9605 12.0863 22.3 12.2528L22.3125 12.4524ZM13.6511 20.7561C14.1127 16.3046 17.8368 12.7339 22.3126 12.4524L22.3 12.2528C17.7271 12.5404 13.9239 16.1865 13.4522 20.7355L13.6511 20.7561ZM15.4739 27.3491C14.0522 25.4639 13.4051 23.1274 13.6511 20.7562L13.4522 20.7355C13.201 23.1566 13.8618 25.5436 15.3142 27.4695L15.4739 27.3491ZM15.494 34.8208V27.4093H15.294V34.8208H15.494ZM16.2397 35.5667C15.8287 35.5667 15.494 35.2321 15.494 34.8208H15.294C15.294 35.3425 15.7182 35.7667 16.2397 35.7667V35.5667ZM24.5083 35.5667H16.2397V35.7667H24.5083V35.5667ZM25.254 34.8208C25.254 35.2321 24.9193 35.5667 24.5083 35.5667V35.7667C25.0298 35.7667 25.454 35.3425 25.454 34.8208H25.254ZM25.254 32.1526V34.8208H25.454V32.1526H25.254ZM29.9042 32.0526H25.354V32.2526H29.9042V32.0526ZM31.5017 30.5942C31.4257 31.426 30.7393 32.0526 29.9042 32.0526V32.2526C30.8427 32.2526 31.6154 31.5471 31.7009 30.6124L31.5017 30.5942ZM31.7687 27.6664L31.5017 30.5942L31.7009 30.6124L31.9678 27.6846L31.7687 27.6664ZM33.9402 27.5755H31.8682V27.7755H33.9402V27.5755ZM34.6688 27.1633C34.5135 27.4216 34.2417 27.5755 33.9402 27.5755V27.7755C34.3119 27.7755 34.6488 27.5848 34.8402 27.2664L34.6688 27.1633ZM34.691 26.3266C34.8324 26.5929 34.8241 26.9051 34.6688 27.1633L34.8402 27.2664C35.0316 26.9481 35.042 26.5611 34.8676 26.2328L34.691 26.3266ZM34.7083 26.3501L34.7086 26.3504L34.85 26.209L34.8497 26.2087L34.7083 26.3501ZM33.9402 27.1155C34.14 27.1155 34.2417 26.9813 34.2747 26.9264L34.1033 26.8234C34.0854 26.8532 34.0368 26.9155 33.9402 26.9155V27.1155ZM31.2657 27.1155H33.9402V26.9155H31.2657V27.1155ZM31.0435 30.5524L31.3653 27.0246L31.1661 27.0065L30.8443 30.5343L31.0435 30.5524ZM29.9042 31.5927C30.4992 31.5927 30.9895 31.1451 31.0435 30.5524L30.8443 30.5343C30.7997 31.024 30.3958 31.3927 29.9042 31.3927V31.5927ZM24.694 31.5927H29.9042V31.3927H24.694V31.5927ZM24.794 34.8208V31.4927H24.594V34.8208H24.794ZM24.5083 35.1068C24.6661 35.1068 24.794 34.9784 24.794 34.8208H24.594C24.594 34.8682 24.5554 34.9068 24.5083 34.9068V35.1068ZM16.2397 35.1068H24.5083V34.9068H16.2397V35.1068ZM15.954 34.8208C15.954 34.9784 16.0819 35.1068 16.2397 35.1068V34.9068C16.1926 34.9068 16.154 34.8682 16.154 34.8208H15.954ZM15.954 27.1852V34.8208H16.154V27.1852H15.954ZM15.9059 27.1571L15.9748 27.2463L16.1331 27.1241L16.0642 27.0348L15.9059 27.1571ZM14.1086 20.8035C13.8711 23.0936 14.5093 25.3504 15.9059 27.1571L16.0641 27.0348C14.6992 25.2692 14.0752 23.0637 14.3075 20.8241L14.1086 20.8035ZM22.3416 12.9115C18.0864 13.1791 14.5474 16.5712 14.1086 20.8035L14.3075 20.8241C14.7362 16.6893 18.1961 13.3726 22.3541 13.1111L22.3416 12.9115ZM22.9203 12.8932C22.7281 12.8932 22.5354 12.8992 22.3416 12.9115L22.3541 13.1111C22.5438 13.0991 22.7323 13.0932 22.9203 13.0932V12.8932ZM28.9746 15.2921C27.3152 13.7338 25.1831 12.8932 22.9203 12.8932V13.0932C25.1323 13.0932 27.2154 13.9144 28.8377 15.4379L28.9746 15.2921ZM31.7691 21.7483C31.7691 19.2777 30.7765 16.9842 28.9746 15.2921L28.8377 15.4379C30.5993 17.0922 31.5691 19.3329 31.5691 21.7483H31.7691ZM31.7691 21.7538L31.7691 21.7479L31.5691 21.7487L31.5691 21.7545L31.7691 21.7538ZM34.2846 26.5424C33.0463 24.2184 32.415 23.0337 32.0931 22.418C31.9319 22.1096 31.8493 21.946 31.8071 21.8541C31.7644 21.7613 31.7691 21.7541 31.7691 21.7531L31.5691 21.7552C31.5696 21.8013 31.581 21.8412 31.6253 21.9376C31.6701 22.035 31.755 22.203 31.9159 22.5107C32.2383 23.1272 32.8701 24.313 34.1081 26.6364L34.2846 26.5424ZM34.2747 26.9263C34.3075 26.8717 34.3785 26.7189 34.2847 26.5424L34.1081 26.6364C34.1534 26.7215 34.1211 26.7936 34.1032 26.8235L34.2747 26.9263ZM27.6032 20.1558C27.6388 20.2893 27.7544 20.3857 27.8946 20.3857V20.1857C27.8515 20.1857 27.8104 20.1566 27.7964 20.1042L27.6032 20.1558ZM27.0993 18.9389C27.3205 19.3205 27.4899 19.7299 27.6032 20.1557L27.7965 20.1043C27.6787 19.6614 27.5024 19.2356 27.2724 18.8386L27.0993 18.9389ZM27.1421 18.5692C27.0429 18.6687 27.0298 18.8189 27.0993 18.9389L27.2724 18.8386C27.2446 18.7908 27.2534 18.7409 27.2837 18.7105L27.1421 18.5692ZM27.1422 17.4932C27.4388 17.7897 27.4388 18.2726 27.1422 18.5691L27.2836 18.7106C27.6583 18.3359 27.6583 17.7264 27.2836 17.3517L27.1422 17.4932ZM26.7156 17.0665L27.1422 17.4932L27.2836 17.3517L26.857 16.9251L26.7156 17.0665ZM25.6398 17.0663C25.925 16.7807 26.4293 16.7804 26.7156 17.0665L26.857 16.9251C26.4927 16.561 25.8617 16.561 25.4983 16.925L25.6398 17.0663ZM25.2697 17.1094C25.3898 17.1789 25.5403 17.1659 25.6398 17.0664L25.4983 16.9249C25.468 16.9553 25.418 16.9641 25.3699 16.9363L25.2697 17.1094ZM24.0532 16.6054C24.479 16.7188 24.8882 16.8884 25.2697 17.1094L25.3699 16.9364C24.9732 16.7065 24.5476 16.5301 24.1046 16.4121L24.0532 16.6054ZM23.8231 16.314C23.8231 16.4542 23.9194 16.5698 24.0531 16.6054L24.1046 16.4121C24.0521 16.3981 24.0231 16.3571 24.0231 16.314H23.8231ZM23.0621 15.5531C23.4817 15.5531 23.8231 15.8946 23.8231 16.314H24.0231C24.0231 15.7841 23.5921 15.3531 23.0621 15.3531V15.5531ZM22.4587 15.5531H23.0621V15.3531H22.4587V15.5531ZM21.6978 16.314C21.6978 15.8945 22.0393 15.5531 22.4587 15.5531V15.3531C21.9288 15.3531 21.4978 15.7841 21.4978 16.314H21.6978ZM21.4676 16.6054C21.6014 16.5698 21.6978 16.4542 21.6978 16.314H21.4978C21.4978 16.357 21.4689 16.3981 21.4162 16.4121L21.4676 16.6054ZM20.2511 17.1094C20.6324 16.8884 21.0416 16.7188 21.4676 16.6054L21.4162 16.4121C20.9731 16.5301 20.5474 16.7065 20.1508 16.9364L20.2511 17.1094ZM19.8813 17.0665C19.9805 17.1657 20.1308 17.1794 20.2513 17.1093L20.1506 16.9365C20.1029 16.9643 20.0531 16.9555 20.0227 16.9251L19.8813 17.0665ZM18.8054 17.0665C19.091 16.7805 19.5951 16.7804 19.8813 17.0665L20.0227 16.9251C19.6584 16.561 19.0276 16.5609 18.6639 16.9252L18.8054 17.0665ZM18.3785 17.4932L18.8053 17.0665L18.6639 16.9251L18.2371 17.3517L18.3785 17.4932ZM18.3786 18.5691C18.082 18.2726 18.082 17.7897 18.3786 17.4932L18.2371 17.3517C17.8625 17.7264 17.8625 18.3359 18.2371 18.7106L18.3786 18.5691ZM18.4215 18.939C18.4909 18.819 18.4781 18.6687 18.3786 18.5691L18.2371 18.7106C18.2674 18.7408 18.2762 18.7906 18.2484 18.8389L18.4215 18.939ZM17.9176 20.1556C18.0307 19.7304 18.2001 19.321 18.4214 18.9391L18.2484 18.8388C18.0182 19.236 17.8419 19.6619 17.7243 20.1042L17.9176 20.1556ZM17.6262 20.3857C17.7664 20.3857 17.882 20.2893 17.9176 20.1556L17.7243 20.1041C17.7103 20.1567 17.6693 20.1857 17.6262 20.1857V20.3857ZM16.8653 21.1465C16.8653 20.7271 17.2067 20.3857 17.6262 20.3857V20.1857C17.0963 20.1857 16.6653 20.6166 16.6653 21.1465H16.8653ZM16.8653 21.75V21.1465H16.6653V21.75H16.8653ZM17.6262 22.5109C17.2067 22.5109 16.8653 22.1695 16.8653 21.75H16.6653C16.6653 22.2799 17.0963 22.7109 17.6262 22.7109V22.5109ZM17.9176 22.7412C17.882 22.6073 17.7664 22.5109 17.6262 22.5109V22.7109C17.6692 22.7109 17.7103 22.7398 17.7243 22.7926L17.9176 22.7412ZM18.4214 23.9577C18.2001 23.5756 18.0307 23.1663 17.9176 22.7412L17.7243 22.7926C17.8419 23.2349 18.0182 23.6605 18.2484 24.0579L18.4214 23.9577ZM18.3786 24.3274C18.478 24.2279 18.4912 24.0778 18.4214 23.9576L18.2484 24.058C18.2763 24.106 18.2675 24.1556 18.2371 24.186L18.3786 24.3274ZM18.3786 25.4034C18.082 25.1068 18.082 24.624 18.3786 24.3274L18.2371 24.186C17.8625 24.5607 17.8625 25.1702 18.2371 25.5448L18.3786 25.4034ZM18.8052 25.8302L18.3786 25.4034L18.2371 25.5448L18.6638 25.9716L18.8052 25.8302ZM19.8815 25.83C19.5951 26.1166 19.0913 26.1164 18.8052 25.8302L18.6638 25.9716C19.0279 26.336 19.6584 26.3361 20.0229 25.9714L19.8815 25.83ZM20.2511 25.7871C20.1314 25.7178 19.9813 25.7312 19.8818 25.8297L20.0226 25.9718C20.0533 25.9413 20.1036 25.9329 20.1508 25.9602L20.2511 25.7871ZM21.4676 26.2912C21.0423 26.1781 20.6331 26.0085 20.2511 25.7871L20.1508 25.9602C20.548 26.1903 20.9737 26.3668 21.4162 26.4844L21.4676 26.2912ZM21.6978 26.5826C21.6978 26.4423 21.6014 26.3268 21.4676 26.2912L21.4162 26.4844C21.4689 26.4985 21.4978 26.5395 21.4978 26.5826H21.6978ZM22.4587 27.3434C22.0393 27.3434 21.6978 27.002 21.6978 26.5826H21.4978C21.4978 27.1125 21.9288 27.5434 22.4587 27.5434V27.3434ZM23.0621 27.3434H22.4587V27.5434H23.0621V27.3434ZM23.8231 26.5826C23.8231 27.002 23.4817 27.3434 23.0621 27.3434V27.5434C23.5921 27.5434 24.0231 27.1125 24.0231 26.5826H23.8231ZM24.0529 26.2912C23.9194 26.3268 23.8231 26.4424 23.8231 26.5826H24.0231C24.0231 26.5394 24.0521 26.4984 24.1045 26.4844L24.0529 26.2912ZM25.2695 25.7873C24.8877 26.0084 24.4783 26.1781 24.053 26.2912L24.1044 26.4844C24.5469 26.3668 24.9727 26.1903 25.3698 25.9604L25.2695 25.7873ZM25.6397 25.8304C25.5401 25.7306 25.3893 25.7173 25.2692 25.7875L25.3701 25.9602C25.4176 25.9324 25.4675 25.941 25.4981 25.9717L25.6397 25.8304ZM26.7156 25.8302C26.4192 26.1265 25.9363 26.1265 25.6395 25.8303L25.4983 25.9718C25.873 26.3459 26.4825 26.3461 26.857 25.9716L26.7156 25.8302ZM27.1422 25.4034L26.7156 25.8302L26.857 25.9716L27.2837 25.5448L27.1422 25.4034ZM27.1422 24.3274C27.4388 24.624 27.4388 25.1068 27.1422 25.4034L27.2836 25.5448C27.6583 25.1702 27.6583 24.5607 27.2836 24.186L27.1422 24.3274ZM27.0993 23.9576C27.0298 24.0775 27.0427 24.2279 27.1422 24.3274L27.2836 24.186C27.2533 24.1557 27.2446 24.1059 27.2724 24.0579L27.0993 23.9576ZM27.6032 22.7411C27.4899 23.1668 27.3205 23.5762 27.0993 23.9576L27.2724 24.0579C27.5024 23.6612 27.6787 23.2353 27.7965 22.7926L27.6032 22.7411ZM27.8946 22.5109C27.7543 22.5109 27.6388 22.6073 27.6032 22.7412L27.7965 22.7926C27.8105 22.7398 27.8515 22.7109 27.8946 22.7109V22.5109ZM28.6556 21.75C28.6556 22.1695 28.3142 22.5109 27.8946 22.5109V22.7109C28.4246 22.7109 28.8556 22.2799 28.8556 21.75H28.6556ZM28.6556 21.1465V21.75H28.8556V21.1465H28.6556ZM27.8946 20.3857C28.3142 20.3857 28.6556 20.7271 28.6556 21.1465H28.8556C28.8556 20.6166 28.4246 20.1857 27.8946 20.1857V20.3857ZM27.8946 22.051C28.0606 22.051 28.1957 21.9162 28.1957 21.75H27.9957C27.9957 21.8056 27.9503 21.851 27.8946 21.851V22.051ZM27.1588 22.6227C27.2485 22.2854 27.5518 22.051 27.8946 22.051V21.851C27.4596 21.851 27.0781 22.1479 26.9655 22.5713L27.1588 22.6227ZM26.7014 23.727C26.9021 23.3807 27.0559 23.0093 27.1588 22.6227L26.9655 22.5713C26.8672 22.9407 26.7202 23.2957 26.5283 23.6267L26.7014 23.727ZM26.817 24.6526C26.5745 24.4101 26.526 24.0295 26.7014 23.727L26.5284 23.6267C26.3084 24.0061 26.3678 24.4862 26.6756 24.794L26.817 24.6526ZM26.817 25.0782C26.9344 24.9609 26.9344 24.7699 26.817 24.6526L26.6756 24.794C26.7149 24.8333 26.7149 24.8975 26.6756 24.9368L26.817 25.0782ZM26.3904 25.5049L26.817 25.0782L26.6756 24.9368L26.249 25.3634L26.3904 25.5049ZM25.9648 25.505C26.0819 25.6221 26.2727 25.6221 26.3903 25.505L26.2491 25.3633C26.2094 25.4028 26.145 25.4024 26.1062 25.3636L25.9648 25.505ZM25.0389 25.3893C25.3419 25.2142 25.7224 25.2628 25.9648 25.505L26.1062 25.3636C25.7985 25.0561 25.3186 24.9967 24.9389 25.2161L25.0389 25.3893ZM23.9348 25.8467C24.3208 25.7441 24.6924 25.5902 25.039 25.3892L24.9387 25.2162C24.6074 25.4083 24.2523 25.5554 23.8834 25.6535L23.9348 25.8467ZM23.3632 26.5826C23.3632 26.2398 23.5976 25.9366 23.9348 25.8467L23.8833 25.6535C23.4601 25.7663 23.1632 26.1475 23.1632 26.5826H23.3632ZM23.0621 26.8835C23.2281 26.8835 23.3632 26.7488 23.3632 26.5826H23.1632C23.1632 26.6381 23.1178 26.6835 23.0621 26.6835V26.8835ZM22.4587 26.8835H23.0621V26.6835H22.4587V26.8835ZM22.1578 26.5826C22.1578 26.7487 22.2926 26.8835 22.4587 26.8835V26.6835C22.4031 26.6835 22.3578 26.6382 22.3578 26.5826H22.1578ZM21.586 25.8467C21.9233 25.9365 22.1578 26.2397 22.1578 26.5826H22.3578C22.3578 26.1476 22.0609 25.7661 21.6374 25.6535L21.586 25.8467ZM20.4816 25.389C20.8284 25.59 21.1997 25.7439 21.586 25.8467L21.6374 25.6535C21.2683 25.5552 20.9134 25.4081 20.5819 25.216L20.4816 25.389ZM20.0925 25.2844C20.2255 25.2844 20.36 25.3187 20.4817 25.3891L20.5818 25.216C20.429 25.1275 20.2599 25.0844 20.0925 25.0844V25.2844ZM19.5562 25.505C19.7008 25.3602 19.8948 25.2844 20.0925 25.2844V25.0844C19.8439 25.0844 19.5984 25.1798 19.4147 25.3636L19.5562 25.505ZM19.1305 25.505C19.2458 25.6203 19.4411 25.6196 19.556 25.5052L19.4149 25.3634C19.3777 25.4005 19.3088 25.4004 19.2719 25.3636L19.1305 25.505ZM18.7037 25.0782L19.1305 25.505L19.2719 25.3636L18.8451 24.9368L18.7037 25.0782ZM18.7036 24.6528C18.5863 24.77 18.5864 24.9609 18.7037 25.0782L18.8451 24.9368C18.8058 24.8975 18.8059 24.8332 18.845 24.7942L18.7036 24.6528ZM18.8194 23.7272C18.9949 24.0296 18.9463 24.4103 18.7036 24.6527L18.8449 24.7942C19.153 24.4865 19.2126 24.0063 18.9924 23.6268L18.8194 23.7272ZM18.362 22.6227C18.4647 23.0088 18.6186 23.3803 18.8194 23.7271L18.9924 23.6269C18.8005 23.2954 18.6534 22.9403 18.5553 22.5713L18.362 22.6227ZM17.6262 22.051C17.969 22.051 18.2723 22.2854 18.362 22.6227L18.5553 22.5713C18.4427 22.1479 18.0612 21.851 17.6262 21.851V22.051ZM17.3252 21.75C17.3252 21.9161 17.4601 22.051 17.6262 22.051V21.851C17.5705 21.851 17.5252 21.8057 17.5252 21.75H17.3252ZM17.3252 21.1465V21.75H17.5252V21.1465H17.3252ZM17.6262 20.8456C17.4601 20.8456 17.3252 20.9804 17.3252 21.1465H17.5252C17.5252 21.0909 17.5705 21.0456 17.6262 21.0456V20.8456ZM18.362 20.2738C18.2721 20.6112 17.969 20.8456 17.6262 20.8456V21.0456C18.0612 21.0456 18.4425 20.7487 18.5553 20.3253L18.362 20.2738ZM18.8194 19.1696C18.6186 19.5164 18.4647 19.8879 18.362 20.2738L18.5553 20.3252C18.6534 19.9565 18.8005 19.6013 18.9924 19.2698L18.8194 19.1696ZM18.7037 18.244C18.9463 18.4865 18.9948 18.8671 18.8194 19.1695L18.9924 19.2699C19.2124 18.8905 19.153 18.4104 18.8451 18.1025L18.7037 18.244ZM18.7037 17.8183C18.5864 17.9357 18.5864 18.1266 18.7037 18.244L18.8451 18.1025C18.8059 18.0633 18.8059 17.999 18.8451 17.9598L18.7037 17.8183ZM19.1307 17.3917L18.7038 17.8183L18.8451 17.9598L19.2721 17.5331L19.1307 17.3917ZM19.556 17.3915C19.4412 17.2772 19.2456 17.2763 19.1305 17.3918L19.2723 17.533C19.3086 17.4964 19.3776 17.4961 19.4149 17.5333L19.556 17.3915ZM20.4816 17.5074C20.1796 17.683 19.7987 17.6344 19.5562 17.3917L19.4147 17.5331C19.7225 17.8411 20.203 17.9008 20.5822 17.6803L20.4816 17.5074ZM21.586 17.0498C21.1994 17.1528 20.8279 17.3069 20.4818 17.5073L20.582 17.6804C20.9129 17.4887 21.268 17.3415 21.6374 17.2431L21.586 17.0498ZM22.1578 16.314C22.1578 16.6568 21.9233 16.9601 21.586 17.0498L21.6374 17.2431C22.0609 17.1305 22.3578 16.749 22.3578 16.314H22.1578ZM22.4587 16.0131C22.2926 16.0131 22.1578 16.1479 22.1578 16.314H22.3578C22.3578 16.2583 22.4031 16.2131 22.4587 16.2131V16.0131ZM23.0621 16.0131H22.4587V16.2131H23.0621V16.0131ZM23.3632 16.314C23.3632 16.1478 23.2281 16.0131 23.0621 16.0131V16.2131C23.1178 16.2131 23.1632 16.2585 23.1632 16.314H23.3632ZM23.9348 17.0498C23.5976 16.9599 23.3632 16.6568 23.3632 16.314H23.1632C23.1632 16.749 23.4601 17.1303 23.8833 17.2431L23.9348 17.0498ZM25.039 17.5074C24.6927 17.3067 24.3213 17.1528 23.9348 17.0498L23.8833 17.2431C24.2528 17.3415 24.6077 17.4886 24.9387 17.6804L25.039 17.5074ZM25.965 17.3916C25.7222 17.634 25.3417 17.6829 25.039 17.5074L24.9387 17.6804C25.3185 17.9006 25.7984 17.8406 26.1063 17.5332L25.965 17.3916ZM26.3903 17.3915C26.2755 17.2772 26.0799 17.2763 25.9648 17.3918L26.1065 17.533C26.1429 17.4964 26.2118 17.4961 26.2491 17.5333L26.3903 17.3915ZM26.817 17.8183L26.3904 17.3917L26.249 17.5331L26.6756 17.9598L26.817 17.8183ZM26.8169 18.2441C26.9344 18.1267 26.9345 17.9357 26.817 17.8183L26.6756 17.9598C26.7148 17.999 26.7149 18.0632 26.6755 18.1027L26.8169 18.2441ZM26.7014 19.1695C26.526 18.8673 26.5745 18.4867 26.8169 18.2441L26.6754 18.1027C26.3678 18.4106 26.3083 18.8906 26.5284 19.2699L26.7014 19.1695ZM27.1588 20.274C27.056 19.8874 26.9021 19.5159 26.7014 19.1696L26.5283 19.2698C26.7201 19.6009 26.8672 19.956 26.9655 20.3254L27.1588 20.274ZM27.8946 20.8456C27.5518 20.8456 27.2486 20.6112 27.1588 20.2739L26.9655 20.3254C27.0783 20.7487 27.4596 21.0456 27.8946 21.0456V20.8456ZM28.1957 21.1465C28.1957 20.9803 28.0606 20.8456 27.8946 20.8456V21.0456C27.9503 21.0456 27.9957 21.091 27.9957 21.1465H28.1957ZM28.1957 21.75V21.1465H27.9957V21.75H28.1957ZM22.7605 18.967C21.3921 18.967 20.279 20.0799 20.279 21.4483H20.479C20.479 20.1904 21.5026 19.167 22.7605 19.167V18.967ZM25.2418 21.4483C25.2418 20.0799 24.1288 18.967 22.7605 18.967V19.167C24.0183 19.167 25.0418 20.1904 25.0418 21.4483H25.2418ZM22.7605 23.9296C24.1288 23.9296 25.2418 22.8166 25.2418 21.4483H25.0418C25.0418 22.7062 24.0183 23.7296 22.7605 23.7296V23.9296ZM20.279 21.4483C20.279 22.8166 21.3921 23.9296 22.7605 23.9296V23.7296C21.5026 23.7296 20.479 22.7061 20.479 21.4483H20.279ZM22.7605 23.0696C21.8664 23.0696 21.1389 22.3422 21.1389 21.4483H20.9389C20.9389 22.4527 21.7559 23.2696 22.7605 23.2696V23.0696ZM24.3818 21.4483C24.3818 22.3422 23.6544 23.0696 22.7605 23.0696V23.2696C23.7648 23.2696 24.5818 22.4526 24.5818 21.4483H24.3818ZM22.7605 19.8269C23.6544 19.8269 24.3818 20.5544 24.3818 21.4483H24.5818C24.5818 20.4439 23.7648 19.6269 22.7605 19.6269V19.8269ZM21.1389 21.4483C21.1389 20.5544 21.8664 19.8269 22.7605 19.8269V19.6269C21.7559 19.6269 20.9389 20.4439 20.9389 21.4483H21.1389Z" fill="#005932"/>
</svg>
