<svg width="48" height="48" viewBox="0 0 48 48" fill="none" xmlns="http://www.w3.org/2000/svg">
<circle cx="24" cy="24" r="24" fill="#ADCABD"/>
<path d="M21.7681 13.5C20.8504 13.5 20.0942 14.2562 20.0942 15.1739V18.5217C20.0942 19.4394 20.8504 20.1957 21.7681 20.1957H23.442V22.9855H16.1884C15.2707 22.9855 14.5145 23.7417 14.5145 24.6594V26.8913H12.8406C11.9229 26.8913 11.1667 27.6475 11.1667 28.5652V31.913C11.1667 32.8307 11.9229 33.587 12.8406 33.587H17.3044C18.2221 33.587 18.9783 32.8307 18.9783 31.913V28.5652C18.9783 27.6475 18.2221 26.8913 17.3044 26.8913H15.6305V24.6594C15.6305 24.3407 15.8696 24.1014 16.1884 24.1014H23.442V26.8913H21.7681C20.8504 26.8913 20.0942 27.6475 20.0942 28.5652V31.913C20.0942 32.8307 20.8504 33.587 21.7681 33.587H26.2319C27.1496 33.587 27.9058 32.8307 27.9058 31.913V28.5652C27.9058 27.6475 27.1496 26.8913 26.2319 26.8913H24.558V24.1014H31.8116C32.1304 24.1014 32.3696 24.3407 32.3696 24.6594V26.8913H30.6957C29.778 26.8913 29.0218 27.6475 29.0218 28.5652V31.913C29.0218 32.8307 29.778 33.587 30.6957 33.587H35.1594C36.0771 33.587 36.8334 32.8307 36.8334 31.913V28.5652C36.8334 27.6475 36.0771 26.8913 35.1594 26.8913H33.4855V24.6594C33.4855 23.7417 32.7293 22.9855 31.8116 22.9855H24.558V20.1957H26.2319C27.1496 20.1957 27.9058 19.4394 27.9058 18.5217V15.1739C27.9058 14.2562 27.1496 13.5 26.2319 13.5H21.7681ZM21.7681 14.6159H26.2319C26.5507 14.6159 26.7899 14.8551 26.7899 15.1739V18.5217C26.7899 18.8405 26.5507 19.0797 26.2319 19.0797H21.7681C21.4494 19.0797 21.2102 18.8405 21.2102 18.5217V15.1739C21.2102 14.8551 21.4494 14.6159 21.7681 14.6159ZM12.8406 28.0072H17.3044C17.6231 28.0072 17.8623 28.2464 17.8623 28.5652V31.913C17.8623 32.2318 17.6231 32.471 17.3044 32.471H12.8406C12.5218 32.471 12.2826 32.2318 12.2826 31.913V28.5652C12.2826 28.2464 12.5218 28.0072 12.8406 28.0072ZM21.7681 28.0072H26.2319C26.5507 28.0072 26.7899 28.2464 26.7899 28.5652V31.913C26.7899 32.2318 26.5507 32.471 26.2319 32.471H21.7681C21.4494 32.471 21.2102 32.2318 21.2102 31.913V28.5652C21.2102 28.2464 21.4494 28.0072 21.7681 28.0072ZM30.6957 28.0072H35.1594C35.4782 28.0072 35.7174 28.2464 35.7174 28.5652V31.913C35.7174 32.2318 35.4782 32.471 35.1594 32.471H30.6957C30.3769 32.471 30.1377 32.2318 30.1377 31.913V28.5652C30.1377 28.2464 30.3769 28.0072 30.6957 28.0072Z" fill="#005932" stroke="#ADCABD" stroke-width="0.2"/>
</svg>
