<svg width="48" height="48" viewBox="0 0 48 48" fill="none" xmlns="http://www.w3.org/2000/svg">
<g filter="url(#filter0_d_1146_10261)">
<circle cx="24" cy="21" r="12" fill="white"/>
</g>
<path d="M22.4 17C22.2933 17 22.1933 17.0413 22.1173 17.1173C21.9613 17.2733 21.9613 17.5267 22.1173 17.6827L25.0347 20.6C25.1373 20.7027 25.196 20.848 25.196 21C25.196 21.152 25.1373 21.2973 25.0347 21.4L22.1173 24.3173C22.04 24.3947 22 24.4973 22 24.6C22 24.7027 22.0387 24.8053 22.1173 24.8827C22.196 24.96 22.2933 25 22.4 25C22.5067 25 22.6067 24.9587 22.6827 24.8827L25.6 21.9653C25.8573 21.708 26 21.364 26 21C26 20.636 25.8573 20.292 25.6 20.0347L22.6827 17.1173C22.6067 17.0413 22.5067 17 22.4 17Z" fill="#4423B1"/>
<defs>
<filter id="filter0_d_1146_10261" x="0" y="0" width="48" height="48" filterUnits="userSpaceOnUse" color-interpolation-filters="sRGB">
<feFlood flood-opacity="0" result="BackgroundImageFix"/>
<feColorMatrix in="SourceAlpha" type="matrix" values="0 0 0 0 0 0 0 0 0 0 0 0 0 0 0 0 0 0 127 0" result="hardAlpha"/>
<feOffset dy="3"/>
<feGaussianBlur stdDeviation="6"/>
<feComposite in2="hardAlpha" operator="out"/>
<feColorMatrix type="matrix" values="0 0 0 0 0.137255 0 0 0 0 0.121569 0 0 0 0 0.12549 0 0 0 0.12 0"/>
<feBlend mode="normal" in2="BackgroundImageFix" result="effect1_dropShadow_1146_10261"/>
<feBlend mode="normal" in="SourceGraphic" in2="effect1_dropShadow_1146_10261" result="shape"/>
</filter>
</defs>
</svg>
