<svg width="24" height="24" viewBox="0 0 24 24" fill="none" xmlns="http://www.w3.org/2000/svg">
<g opacity="0.5">
<path d="M11.6269 2C8.52319 2 6.00455 4.50775 6.00455 7.60185V8.36838C4.87053 8.56355 4 9.55732 4 10.7446V19.5881C4 20.9141 5.08586 22 6.41187 22H16.8446C18.1706 22 19.2565 20.9141 19.2565 19.5881V10.7446C19.2565 9.55631 18.3847 8.56236 17.2493 8.36838V7.60185C17.2493 4.50754 14.7306 2 11.6269 2ZM11.6269 3.1382C14.1205 3.1382 16.1102 5.12288 16.1102 7.60185V8.33272H7.14631V7.60185C7.14631 5.12267 9.13325 3.1382 11.6269 3.1382ZM6.41187 9.47538H16.8446C17.5583 9.47538 18.1147 10.0309 18.1147 10.7446V19.5881C18.1147 20.3018 17.5583 20.8582 16.8446 20.8582H6.41187C5.69816 20.8582 5.14176 20.3018 5.14176 19.5881V10.7446C5.14176 10.0309 5.69816 9.47538 6.41187 9.47538ZM11.6269 12.5468C10.1838 12.5468 8.99933 13.7273 8.99933 15.1681C8.99933 16.609 10.1838 17.7859 11.6269 17.7859C13.07 17.7859 14.2545 16.609 14.2545 15.1681C14.2545 13.7273 13.07 12.5468 11.6269 12.5468ZM11.6269 13.6895C12.4561 13.6895 13.1154 14.3465 13.1154 15.1681C13.1154 15.9898 12.4561 16.6433 11.6269 16.6433C10.7977 16.6433 10.1411 15.9898 10.1411 15.1681C10.1411 14.3465 10.7977 13.6895 11.6269 13.6895Z" fill="#231F20" stroke="#231F20" stroke-width="0.2"/>
</g>
</svg>
