<svg width="48" height="48" viewBox="0 0 48 48" fill="none" xmlns="http://www.w3.org/2000/svg">
<g filter="url(#filter0_d_1146_10202)">
<circle cx="12" cy="12" r="12" transform="matrix(-1 0 0 1 36 9)" fill="white"/>
</g>
<path d="M25.6 17C25.7067 17 25.8067 17.0413 25.8827 17.1173C26.0387 17.2733 26.0387 17.5267 25.8827 17.6827L22.9653 20.6C22.8627 20.7027 22.804 20.848 22.804 21C22.804 21.152 22.8627 21.2973 22.9653 21.4L25.8827 24.3173C25.96 24.3947 26 24.4973 26 24.6C26 24.7027 25.9613 24.8053 25.8827 24.8827C25.804 24.96 25.7067 25 25.6 25C25.4933 25 25.3933 24.9587 25.3173 24.8827L22.4 21.9653C22.1427 21.708 22 21.364 22 21C22 20.636 22.1427 20.292 22.4 20.0347L25.3173 17.1173C25.3933 17.0413 25.4933 17 25.6 17Z" fill="#4423B1"/>
<defs>
<filter id="filter0_d_1146_10202" x="0" y="0" width="48" height="48" filterUnits="userSpaceOnUse" color-interpolation-filters="sRGB">
<feFlood flood-opacity="0" result="BackgroundImageFix"/>
<feColorMatrix in="SourceAlpha" type="matrix" values="0 0 0 0 0 0 0 0 0 0 0 0 0 0 0 0 0 0 127 0" result="hardAlpha"/>
<feOffset dy="3"/>
<feGaussianBlur stdDeviation="6"/>
<feComposite in2="hardAlpha" operator="out"/>
<feColorMatrix type="matrix" values="0 0 0 0 0.137255 0 0 0 0 0.121569 0 0 0 0 0.12549 0 0 0 0.12 0"/>
<feBlend mode="normal" in2="BackgroundImageFix" result="effect1_dropShadow_1146_10202"/>
<feBlend mode="normal" in="SourceGraphic" in2="effect1_dropShadow_1146_10202" result="shape"/>
</filter>
</defs>
</svg>
