<svg width="48" height="48" viewBox="0 0 48 48" fill="none" xmlns="http://www.w3.org/2000/svg">
<circle cx="24" cy="24" r="24" fill="#ADCABD"/>
<path d="M23.0879 35.6668C21.6362 35.6668 20.2277 35.3824 18.9016 34.8215C17.6209 34.2798 16.4708 33.5044 15.4833 32.5169C14.4957 31.5293 13.7204 30.3792 13.1787 29.0985C12.6177 27.7723 12.3333 26.3638 12.3333 24.9122C12.3333 23.4605 12.6177 22.0521 13.1787 20.7259C13.7204 19.4451 14.4957 18.2951 15.4833 17.3075C16.4708 16.32 17.6209 15.5446 18.9016 15.0029C20.2278 14.442 21.6362 14.1576 23.0879 14.1576C23.3507 14.1576 23.5638 14.3706 23.5638 14.6335V24.4363H33.3666C33.6294 24.4363 33.8425 24.6494 33.8425 24.9122C33.8425 26.3638 33.5581 27.7723 32.9972 29.0985C32.4555 30.3792 31.6801 31.5293 30.6926 32.5169C29.705 33.5044 28.5549 34.2798 27.2742 34.8215C25.948 35.3824 24.5395 35.6668 23.0879 35.6668ZM22.612 15.1208C17.427 15.37 13.2851 19.6666 13.2851 24.9122C13.2851 30.3175 17.6826 34.715 23.0879 34.715C28.3335 34.715 32.6301 30.573 32.8793 25.3881H23.0879C22.8251 25.3881 22.612 25.175 22.612 24.9122V15.1208Z" fill="#005932"/>
<path d="M35.1908 23.5639H24.912C24.6492 23.5639 24.4362 23.3508 24.4362 23.088V12.8093C24.4362 12.5464 24.6492 12.3334 24.912 12.3334C26.3637 12.3334 27.7722 12.6178 29.0983 13.1787C30.3791 13.7204 31.5291 14.4958 32.5167 15.4833C33.5042 16.4708 34.2796 17.6209 34.8213 18.9016C35.3822 20.2279 35.6666 21.6363 35.6666 23.088C35.6667 23.3508 35.4536 23.5639 35.1908 23.5639ZM25.388 22.6121H34.7035C34.4619 17.585 30.4151 13.5382 25.388 13.2966V22.6121Z" fill="#005932"/>
</svg>
