<svg width="20" height="20" viewBox="0 0 20 20" fill="none" xmlns="http://www.w3.org/2000/svg">
<g opacity="0.5">
<path d="M16.5336 15.758L13.0308 12.2552C13.9154 11.1677 14.349 9.78236 14.2423 8.38453C14.1355 6.98679 13.4966 5.68336 12.457 4.74281C11.4176 3.80235 10.0569 3.29656 8.6555 3.32965C7.25407 3.36288 5.91876 3.93243 4.92495 4.92104C3.93636 5.91489 3.36681 7.25023 3.33356 8.65159C3.30045 10.053 3.80623 11.4137 4.74671 12.4531C5.68729 13.4927 6.99073 14.1316 8.38844 14.2384C9.78617 14.3451 11.1716 13.9115 12.2591 13.0269L15.762 16.5297C15.9029 16.6504 16.0954 16.6915 16.2733 16.6389C16.4511 16.5863 16.5903 16.4471 16.6429 16.2693C16.6955 16.0914 16.6544 15.899 16.5337 15.758L16.5336 15.758ZM5.69665 11.8886C4.87516 11.0677 4.4135 9.95384 4.41325 8.79249C4.41301 7.63101 4.87419 6.51707 5.6953 5.69571C6.51653 4.87435 7.63035 4.41291 8.79183 4.41291C9.95318 4.41291 11.0671 4.87435 11.8882 5.69571C12.7095 6.51707 13.1707 7.63101 13.1704 8.79249C13.1702 9.95384 12.7084 11.0677 11.8869 11.8886C11.0694 12.7158 9.95478 13.1814 8.79183 13.1814C7.62875 13.1814 6.51409 12.7158 5.69665 11.8886Z" fill="#231F20"/>
</g>
</svg>
