<svg width="120" height="120" viewBox="0 0 120 120" fill="none" xmlns="http://www.w3.org/2000/svg">
<path d="M53.0234 64.2032C53.0234 64.3099 53.0234 64.4553 53.0234 64.5619C53.0234 68.6935 56.3651 72.0351 60.4967 72.0351C64.5919 72.0351 67.9336 68.6935 67.9336 64.5619C67.9336 64.4553 67.9336 64.3099 67.9336 64.2032C67.7179 60.2873 64.4853 57.125 60.4967 57.125C56.4717 57.125 53.2391 60.2873 53.0234 64.2032Z" fill="#383838"/>
<path d="M92.5472 75.9141C90.3542 75.9141 88.5586 77.7097 88.5586 79.9027C88.5586 82.0933 90.3542 83.8913 92.5472 83.8913C94.7742 83.8913 96.5359 82.0957 96.5359 79.9027C96.5359 77.7097 94.7742 75.9141 92.5472 75.9141Z" fill="white"/>
<path d="M28.4125 83.8913C30.6153 83.8913 32.4011 82.1056 32.4011 79.9027C32.4011 77.6998 30.6153 75.9141 28.4125 75.9141C26.2096 75.9141 24.4238 77.6998 24.4238 79.9027C24.4238 82.1056 26.2096 83.8913 28.4125 83.8913Z" fill="white"/>
<path d="M73.2896 53.5665C73.7573 53.5665 74.225 53.3871 74.5836 53.0285C75.267 52.3451 75.267 51.1965 74.5836 50.4768C70.8107 46.7402 65.8164 44.6562 60.4998 44.6562C55.1469 44.6562 50.1527 46.7402 46.3797 50.4768C45.6964 51.1965 45.6964 52.3451 46.3797 53.0285C47.0994 53.7458 48.248 53.7458 48.9314 53.0285C52.021 49.9389 56.1187 48.2499 60.4998 48.2499C64.8471 48.2499 68.9448 49.9389 72.0344 53.0285C72.3906 53.3871 72.822 53.5665 73.2896 53.5665Z" fill="white" stroke="white"/>
<path d="M81.3375 45.5157C81.8052 45.5157 82.2704 45.3363 82.5951 44.9777C83.3148 44.2944 83.3148 43.1457 82.5951 42.4624C70.4136 30.2469 50.5456 30.2469 38.364 42.4624C37.6443 43.1457 37.6443 44.2944 38.364 44.9777C39.0473 45.6974 40.1959 45.6974 40.8793 44.9777C51.6942 34.1992 69.265 34.1992 80.0798 44.9777C80.4021 45.3363 80.8698 45.5157 81.3375 45.5157Z" fill="white" stroke="white"/>
<path d="M32.9009 37.001C48.0994 21.8025 72.8551 21.8025 88.0536 37.001C88.4122 37.3596 88.8435 37.5389 89.3112 37.5389C89.7789 37.5389 90.2466 37.3596 90.6052 37.001C91.2886 36.3176 91.2886 35.169 90.6052 34.4493C73.9698 17.8502 46.9847 17.8502 30.3856 34.4493C29.6683 35.169 29.6683 36.3176 30.3856 37.001C31.069 37.7207 32.22 37.7207 32.9009 37.001Z" fill="white" stroke="white"/>
<path d="M92.7992 62.4023H71.3124C71.4554 63.0857 71.5281 63.803 71.5281 64.559C71.5281 65.0631 71.4918 65.5283 71.4215 65.996C70.7381 71.4216 66.0686 75.6259 60.4976 75.6259C54.8927 75.6259 50.2207 71.4216 49.5397 65.996C49.467 65.5283 49.4331 65.0606 49.4331 64.559C49.4331 63.8054 49.5058 63.0857 49.6488 62.4023H28.162C16.4845 62.4023 7 71.8869 7 83.5644V95.6369C7 96.6062 7.78997 97.4325 8.79561 97.4325H112.204C113.21 97.4325 114 96.6062 114 95.6369V83.5644C113.998 71.8893 104.477 62.4023 92.7992 62.4023ZM28.4116 87.4827C24.2073 87.4827 20.8294 84.0684 20.8294 79.9005C20.8294 75.7325 24.2073 72.3182 28.4116 72.3182C32.5796 72.3182 35.9939 75.7325 35.9939 79.9005C35.9939 84.0684 32.5796 87.4827 28.4116 87.4827ZM92.5472 87.4827C88.3792 87.4827 84.9649 84.0684 84.9649 79.9005C84.9649 75.7325 88.3792 72.3182 92.5472 72.3182C96.7515 72.3182 100.129 75.7325 100.129 79.9005C100.129 84.0684 96.7515 87.4827 92.5472 87.4827Z" fill="#383838"/>
</svg>
