<svg width="24" height="24" viewBox="0 0 24 24" fill="none" xmlns="http://www.w3.org/2000/svg">
<g opacity="0.5">
<path d="M11.9277 18.5826C8.62194 18.5826 5.42279 16.843 2.41778 13.411L2.4176 13.4105C1.86646 12.7797 1.85998 11.7916 2.40336 11.1604C3.73061 9.61818 7.32607 6.02901 12.0335 6.00866C12.047 6.00866 16.827 5.55676 21.5837 11.1803C22.125 11.8201 22.1474 12.7611 21.5983 13.4303C20.3817 14.913 16.5909 18.627 11.9279 18.5825L11.9277 18.5826ZM3.24864 12.6833C6.03434 15.8655 8.95442 17.4858 11.9282 17.4783C16.1437 17.4679 19.6411 14.0562 20.7615 12.7103C20.9412 12.4944 20.941 12.1221 20.7534 11.9081C17.9675 8.72598 15.0382 7.10987 12.0379 7.11318C7.78483 7.11818 4.46835 10.4534 3.23956 11.8807C3.05621 12.0936 3.06028 12.4688 3.24843 12.684L3.24864 12.6833ZM12.0011 15.1339C10.436 15.1339 9.16233 13.8607 9.16233 12.2957C9.16233 10.7303 10.436 9.45701 12.0011 9.45701C13.566 9.45701 14.8392 10.7303 14.8392 12.2957C14.8392 13.8607 13.566 15.1339 12.0011 15.1339ZM12.0011 10.561C11.0444 10.561 10.2663 11.3395 10.2663 12.2957C10.2663 13.252 11.0444 14.03 12.0011 14.03C12.9574 14.03 13.7353 13.252 13.7353 12.2957C13.7353 11.3395 12.9574 10.561 12.0011 10.561Z" fill="#231F20" stroke="#231F20" stroke-width="0.4"/>
</g>
</svg>
