<svg width="20" height="20" viewBox="0 0 20 20" fill="none" xmlns="http://www.w3.org/2000/svg">
<path d="M10 0C11.9778 0 13.9112 0.58649 15.5557 1.6853C17.2002 2.78412 18.4819 4.3459 19.2388 6.17316C19.9957 8.00042 20.1937 10.0111 19.8078 11.9509C19.422 13.8907 18.4696 15.6725 17.0711 17.0711C15.6725 18.4696 13.8907 19.422 11.9509 19.8078C10.0111 20.1937 8.00043 19.9957 6.17316 19.2388C4.3459 18.4819 2.78412 17.2002 1.6853 15.5557C0.586489 13.9112 0 11.9778 0 10C0.00279999 7.34869 1.05727 4.80678 2.93202 2.93202C4.80678 1.05727 7.34869 0.00279983 10 0ZM7.9173 13.3019C7.84584 13.3734 7.78914 13.4582 7.75047 13.5516C7.71179 13.645 7.69188 13.7451 7.69188 13.8462C7.69188 13.9472 7.71179 14.0473 7.75047 14.1407C7.78914 14.2341 7.84584 14.3189 7.9173 14.3904C7.98877 14.4619 8.07362 14.5185 8.167 14.5572C8.26038 14.5959 8.36046 14.6158 8.46154 14.6158C8.56261 14.6158 8.66269 14.5959 8.75607 14.5572C8.84945 14.5185 8.9343 14.4619 9.00577 14.3904L12.8519 10.5442C12.9234 10.4728 12.9802 10.388 13.0189 10.2946C13.0576 10.2012 13.0775 10.1011 13.0775 10C13.0775 9.89891 13.0576 9.79881 13.0189 9.70543C12.9802 9.61205 12.9234 9.52721 12.8519 9.45577L9.00577 5.60961C8.9343 5.53814 8.84945 5.48145 8.75607 5.44277C8.66269 5.40409 8.56261 5.38419 8.46154 5.38419C8.36046 5.38419 8.26038 5.40409 8.167 5.44277C8.07362 5.48145 7.98877 5.53814 7.9173 5.60961C7.84584 5.68108 7.78914 5.76593 7.75047 5.85931C7.71179 5.95269 7.69188 6.05277 7.69188 6.15384C7.69188 6.25492 7.71179 6.355 7.75047 6.44838C7.78914 6.54176 7.84584 6.62661 7.9173 6.69808L11.2202 10L7.9173 13.3019Z" fill="#4423B1"/>
</svg>
