<svg width="22" height="22" viewBox="0 0 22 22" fill="none" xmlns="http://www.w3.org/2000/svg">
<path fill-rule="evenodd" clip-rule="evenodd" d="M20.9452 16.065V19.78C20.9449 19.9405 20.9129 20.0994 20.8512 20.2476C20.7894 20.3958 20.6991 20.5304 20.5854 20.6437C20.4716 20.757 20.3367 20.8468 20.1882 20.9079C20.0398 20.969 19.8807 21.0003 19.7202 21H4.01519C3.19862 20.9675 2.42688 20.618 1.8639 20.0256C1.30093 19.4332 0.991091 18.6447 1.0002 17.8275V2.22C1.00086 1.89664 1.1296 1.58671 1.35825 1.35806C1.58691 1.12941 1.89683 1.00066 2.2202 1H5.93019C6.25356 1.00066 6.56348 1.12941 6.79213 1.35806C7.02079 1.58671 7.14953 1.89664 7.15019 2.22V10.445L12.9627 4.6275C13.1918 4.39942 13.5019 4.27137 13.8252 4.27137C14.1485 4.27137 14.4586 4.39942 14.6877 4.6275L17.3177 7.255C17.5464 7.48378 17.6749 7.79402 17.6749 8.1175C17.6749 8.44098 17.5464 8.75122 17.3177 8.98L11.4527 14.845H19.7202C19.8807 14.8447 20.0398 14.876 20.1882 14.9371C20.3367 14.9982 20.4716 15.088 20.5854 15.2013C20.6991 15.3146 20.7894 15.4492 20.8512 15.5974C20.9129 15.7456 20.9449 15.9045 20.9452 16.065ZM13.8252 4.75841C13.6311 4.75841 13.445 4.83541 13.3077 4.9725L10.7327 7.55L14.3952 11.2125L16.9702 8.635C17.0384 8.56716 17.0925 8.48653 17.1294 8.39772C17.1663 8.30891 17.1853 8.21368 17.1853 8.1175C17.1853 8.02132 17.1663 7.92609 17.1294 7.83728C17.0925 7.74847 17.0384 7.66783 16.9702 7.6L14.3427 4.9725C14.2054 4.83541 14.0192 4.75841 13.8252 4.75841ZM7.15019 11.54V17.92C7.15001 18.1197 7.13075 18.3189 7.09269 18.515L10.6102 15L7.15019 11.54ZM2.21334 19.6781C2.68777 20.1767 3.33747 20.4715 4.02519 20.5C4.3675 20.5066 4.70771 20.4453 5.02612 20.3194C5.34454 20.1936 5.63481 20.0059 5.88014 19.7671C6.12546 19.5282 6.32095 19.2431 6.45528 18.9282C6.58961 18.6133 6.66011 18.2749 6.66269 17.9325V2.2325C6.66269 2.13631 6.64375 2.04106 6.60694 1.95218C6.57012 1.86331 6.51617 1.78256 6.44815 1.71454C6.38013 1.64653 6.29938 1.59257 6.21051 1.55576C6.12164 1.51895 6.02639 1.5 5.93019 1.5H2.2202C2.02721 1.49865 1.84148 1.57353 1.70339 1.70835C1.56529 1.84316 1.48598 2.02703 1.4827 2.22V17.8275C1.47691 18.5158 1.73891 19.1794 2.21334 19.6781ZM5.72519 20.5H10.7252L10.7202 15.5725L6.53019 19.75C6.43688 19.8753 6.33497 19.9939 6.22519 20.105C6.07187 20.2527 5.9044 20.385 5.72519 20.5ZM10.3877 7.895L7.29269 11L10.9552 14.6525L14.0502 11.5575L10.3877 7.895ZM11.2202 20.5125H15.5902V15.3325H11.2202V20.5125ZM20.4128 20.0644C20.4507 19.9744 20.4702 19.8777 20.4702 19.78V16.065C20.4702 15.9673 20.4507 15.8706 20.4128 15.7806C20.3749 15.6905 20.3194 15.609 20.2495 15.5408C20.1796 15.4725 20.0968 15.4189 20.0059 15.3832C19.915 15.3474 19.8179 15.3302 19.7202 15.3325H16.0777V20.5125H19.7202C19.8179 20.5148 19.915 20.4976 20.0059 20.4618C20.0968 20.4261 20.1796 20.3725 20.2495 20.3042C20.3194 20.236 20.3749 20.1544 20.4128 20.0644ZM3.27094 16.7879C3.50835 16.6295 3.78733 16.545 4.07269 16.545C4.2632 16.5453 4.45178 16.5833 4.6276 16.6566C4.80342 16.73 4.96303 16.8373 5.09727 16.9725C5.23152 17.1077 5.33776 17.268 5.40991 17.4444C5.48205 17.6207 5.51868 17.8095 5.51769 18C5.51572 18.2854 5.4293 18.5638 5.26932 18.8001C5.10935 19.0364 4.88298 19.22 4.61878 19.3279C4.35457 19.4357 4.06435 19.4629 3.78471 19.406C3.50507 19.3491 3.24853 19.2107 3.04744 19.0083C2.84635 18.8058 2.70972 18.5483 2.65477 18.2683C2.59982 17.9882 2.62902 17.6982 2.73867 17.4347C2.84833 17.1713 3.03354 16.9462 3.27094 16.7879ZM3.53946 18.7827C3.69718 18.8885 3.88279 18.945 4.07269 18.945C4.32469 18.9457 4.56673 18.8467 4.74608 18.6697C4.92543 18.4927 5.02756 18.252 5.03019 18C5.03267 17.8101 4.97863 17.6238 4.87494 17.4647C4.77125 17.3056 4.62259 17.1809 4.44786 17.1065C4.27313 17.0321 4.08023 17.0114 3.89368 17.0469C3.70712 17.0824 3.53535 17.1726 3.40018 17.306C3.26502 17.4394 3.17258 17.61 3.13461 17.7961C3.09664 17.9821 3.11486 18.1753 3.18695 18.351C3.25904 18.5267 3.38174 18.677 3.53946 18.7827Z" fill="white"/>
<path d="M20.9452 19.78L21.1452 19.7804V19.78H20.9452ZM20.9452 16.065H21.1452L21.1452 16.0646L20.9452 16.065ZM20.5854 20.6437L20.7265 20.7854H20.7265L20.5854 20.6437ZM20.1882 20.9079L20.2644 21.0928L20.2644 21.0928L20.1882 20.9079ZM19.7202 21L19.7206 20.8H19.7202V21ZM4.01519 21L4.00724 21.2H4.01519V21ZM1.8639 20.0256L1.71893 20.1634L1.8639 20.0256ZM1.0002 17.8275L1.2002 17.8297V17.8275H1.0002ZM1.0002 2.22L0.800195 2.21959V2.22H1.0002ZM1.35825 1.35806L1.49968 1.49948L1.49968 1.49948L1.35825 1.35806ZM2.2202 1V0.8L2.21979 0.8L2.2202 1ZM5.93019 1L5.9306 0.8H5.93019V1ZM6.79213 1.35806L6.65071 1.49948V1.49948L6.79213 1.35806ZM7.15019 2.22H7.3502L7.35019 2.21959L7.15019 2.22ZM7.15019 10.445H6.95019V10.9281L7.29168 10.5864L7.15019 10.445ZM12.9627 4.6275L12.8216 4.48576L12.8212 4.48614L12.9627 4.6275ZM14.6877 4.6275L14.829 4.48601L14.8288 4.48576L14.6877 4.6275ZM17.3177 7.255L17.4591 7.11361L17.459 7.11351L17.3177 7.255ZM17.3177 8.98L17.4591 9.12142L17.4591 9.12139L17.3177 8.98ZM11.4527 14.845L11.3113 14.7036L10.9699 15.045H11.4527V14.845ZM19.7202 14.845V15.045L19.7206 15.045L19.7202 14.845ZM20.1882 14.9371L20.2644 14.7522L20.2644 14.7522L20.1882 14.9371ZM20.5854 15.2013L20.7265 15.0596L20.7265 15.0596L20.5854 15.2013ZM13.3077 4.9725L13.1664 4.83095L13.1662 4.83115L13.3077 4.9725ZM10.7327 7.55L10.5912 7.40865L10.4499 7.55007L10.5913 7.69142L10.7327 7.55ZM14.3952 11.2125L14.2538 11.3539L14.3953 11.4954L14.5367 11.3539L14.3952 11.2125ZM16.9702 8.635L16.8291 8.49322L16.8287 8.49365L16.9702 8.635ZM17.1294 7.83728L17.3141 7.76051H17.3141L17.1294 7.83728ZM16.9702 7.6L16.8288 7.74142L16.8291 7.74178L16.9702 7.6ZM14.3427 4.9725L14.4841 4.83108L14.484 4.83095L14.3427 4.9725ZM7.15019 17.92L7.35019 17.9202V17.92H7.15019ZM7.15019 11.54L7.29162 11.3986L6.95019 11.0572V11.54H7.15019ZM7.09269 18.515L6.89636 18.4769L6.77182 19.1184L7.23407 18.6565L7.09269 18.515ZM10.6102 15L10.7516 15.1415L10.8931 15L10.7516 14.8586L10.6102 15ZM4.02519 20.5L4.01691 20.6999L4.02132 20.7L4.02519 20.5ZM2.21334 19.6781L2.06844 19.8159L2.21334 19.6781ZM5.02612 20.3194L5.09962 20.5054H5.09962L5.02612 20.3194ZM5.88014 19.7671L6.01964 19.9104H6.01964L5.88014 19.7671ZM6.45528 18.9282L6.27132 18.8497L6.45528 18.9282ZM6.66269 17.9325L6.86269 17.934V17.9325H6.66269ZM6.60694 1.95218L6.42216 2.02872L6.42216 2.02872L6.60694 1.95218ZM6.44815 1.71454L6.30673 1.85597V1.85597L6.44815 1.71454ZM2.2202 1.5L2.2188 1.7H2.2202V1.5ZM1.70339 1.70835L1.8431 1.85145L1.8431 1.85145L1.70339 1.70835ZM1.4827 2.22L1.2827 2.21659V2.22H1.4827ZM1.4827 17.8275L1.6827 17.8292V17.8275H1.4827ZM10.7252 20.5V20.7H10.9254L10.9252 20.4998L10.7252 20.5ZM5.72519 20.5L5.6172 20.3317L5.04308 20.7H5.72519V20.5ZM10.7202 15.5725L10.9202 15.5723L10.9197 15.0912L10.579 15.4309L10.7202 15.5725ZM6.53019 19.75L6.38899 19.6084L6.37858 19.6187L6.36981 19.6305L6.53019 19.75ZM6.22519 20.105L6.364 20.2491L6.36748 20.2456L6.22519 20.105ZM7.29269 11L7.15105 10.8588L7.00989 11.0004L7.15147 11.1416L7.29269 11ZM10.3877 7.895L10.5291 7.75358L10.3875 7.61193L10.246 7.75381L10.3877 7.895ZM10.9552 14.6525L10.814 14.7941L10.9554 14.9351L11.0966 14.7939L10.9552 14.6525ZM14.0502 11.5575L14.1916 11.6989L14.333 11.5575L14.1916 11.4161L14.0502 11.5575ZM15.5902 20.5125V20.7125H15.7902V20.5125H15.5902ZM11.2202 20.5125H11.0202V20.7125H11.2202V20.5125ZM15.5902 15.3325H15.7902V15.1325H15.5902V15.3325ZM11.2202 15.3325V15.1325H11.0202V15.3325H11.2202ZM20.4702 19.78H20.2702V19.7801L20.4702 19.78ZM20.4702 16.065L20.2702 16.0649V16.065H20.4702ZM20.4128 15.7806L20.5971 15.703V15.703L20.4128 15.7806ZM20.0059 15.3832L20.0791 15.197H20.0791L20.0059 15.3832ZM19.7202 15.3325V15.5326L19.725 15.5324L19.7202 15.3325ZM16.0777 15.3325V15.1325H15.8777V15.3325H16.0777ZM16.0777 20.5125H15.8777V20.7125H16.0777V20.5125ZM19.7202 20.5125L19.725 20.3125H19.7202V20.5125ZM20.0059 20.4618L20.0791 20.648L20.0791 20.648L20.0059 20.4618ZM4.07269 16.545L4.07304 16.345H4.07269L4.07269 16.545ZM4.6276 16.6566L4.70461 16.472L4.6276 16.6566ZM5.51769 18L5.71769 18.0014L5.71769 18.001L5.51769 18ZM4.61878 19.3279L4.69435 19.513L4.69436 19.513L4.61878 19.3279ZM3.78471 19.406L3.82457 19.21L3.78471 19.406ZM3.04744 19.0083L2.90553 19.1492L2.90553 19.1492L3.04744 19.0083ZM2.65477 18.2683L2.85103 18.2297L2.65477 18.2683ZM4.07269 18.945L4.07323 18.745H4.07271L4.07269 18.945ZM3.53946 18.7827L3.65086 18.6166H3.65086L3.53946 18.7827ZM5.03019 18L4.83021 17.9974L4.8302 17.9979L5.03019 18ZM4.44786 17.1065L4.36951 17.2906L4.36951 17.2906L4.44786 17.1065ZM3.18695 18.351L3.37198 18.2751L3.18695 18.351ZM21.1452 19.78V16.065H20.7452V19.78H21.1452ZM21.0358 20.3246C21.1076 20.1521 21.1448 19.9672 21.1452 19.7804L20.7452 19.7796C20.7449 19.9139 20.7182 20.0468 20.6666 20.1707L21.0358 20.3246ZM20.7265 20.7854C20.8589 20.6536 20.964 20.497 21.0358 20.3246L20.6666 20.1707C20.6149 20.2947 20.5394 20.4072 20.4442 20.502L20.7265 20.7854ZM20.2644 21.0928C20.4371 21.0217 20.5941 20.9172 20.7265 20.7854L20.4442 20.502C20.3491 20.5967 20.2362 20.6718 20.1121 20.723L20.2644 21.0928ZM19.7198 21.2C19.9066 21.2004 20.0916 21.164 20.2644 21.0928L20.1121 20.723C19.9879 20.7741 19.8549 20.8003 19.7206 20.8L19.7198 21.2ZM4.01519 21.2H19.7202V20.8H4.01519V21.2ZM1.71893 20.1634C2.31776 20.7935 3.13866 21.1653 4.00725 21.1998L4.02314 20.8002C3.25858 20.7697 2.53599 20.4424 2.00888 19.8878L1.71893 20.1634ZM0.800208 17.8253C0.790523 18.6945 1.1201 19.5332 1.71893 20.1634L2.00888 19.8878C1.48177 19.3332 1.19166 18.5948 1.20018 17.8297L0.800208 17.8253ZM0.800195 2.22V17.8275H1.2002V2.22H0.800195ZM1.21683 1.21664C0.950775 1.4827 0.800964 1.84333 0.800196 2.21959L1.20019 2.22041C1.20075 1.94995 1.30843 1.69072 1.49968 1.49948L1.21683 1.21664ZM2.21979 0.8C1.84352 0.800769 1.48289 0.95058 1.21683 1.21664L1.49968 1.49948C1.69092 1.30824 1.95014 1.20055 2.2206 1.2L2.21979 0.8ZM5.93019 0.8H2.2202V1.2H5.93019V0.8ZM6.93356 1.21664C6.6675 0.95058 6.30687 0.800769 5.9306 0.8L5.92979 1.2C6.20025 1.20055 6.45947 1.30824 6.65071 1.49948L6.93356 1.21664ZM7.35019 2.21959C7.34943 1.84333 7.19962 1.4827 6.93356 1.21664L6.65071 1.49948C6.84196 1.69073 6.94964 1.94995 6.9502 2.22041L7.35019 2.21959ZM7.35019 10.445V2.22H6.95019V10.445H7.35019ZM12.8212 4.48614L7.00871 10.3036L7.29168 10.5864L13.1042 4.76886L12.8212 4.48614ZM13.8252 4.07137C13.449 4.07137 13.0882 4.22037 12.8216 4.48576L13.1038 4.76924C13.2954 4.57847 13.5548 4.47137 13.8252 4.47137V4.07137ZM14.8288 4.48576C14.5622 4.22037 14.2014 4.07137 13.8252 4.07137V4.47137C14.0956 4.47137 14.355 4.57847 14.5466 4.76924L14.8288 4.48576ZM17.459 7.11351L14.829 4.48601L14.5463 4.76899L17.1763 7.39649L17.459 7.11351ZM17.8749 8.1175C17.8749 7.74099 17.7253 7.37989 17.4591 7.11361L17.1762 7.39639C17.3674 7.58767 17.4749 7.84705 17.4749 8.1175H17.8749ZM17.4591 9.12139C17.7253 8.85511 17.8749 8.49401 17.8749 8.1175H17.4749C17.4749 8.38795 17.3674 8.64733 17.1762 8.8386L17.4591 9.12139ZM11.5941 14.9864L17.4591 9.12142L17.1763 8.83858L11.3113 14.7036L11.5941 14.9864ZM19.7202 14.645H11.4527V15.045H19.7202V14.645ZM20.2644 14.7522C20.0916 14.681 19.9066 14.6446 19.7198 14.645L19.7206 15.045C19.8549 15.0447 19.9879 15.0709 20.1121 15.122L20.2644 14.7522ZM20.7265 15.0596C20.5941 14.9278 20.4371 14.8233 20.2644 14.7522L20.1121 15.122C20.2362 15.1732 20.3491 15.2482 20.4442 15.343L20.7265 15.0596ZM21.0358 15.5204C20.964 15.348 20.8589 15.1914 20.7265 15.0596L20.4442 15.343C20.5394 15.4378 20.6149 15.5503 20.6666 15.6743L21.0358 15.5204ZM21.1452 16.0646C21.1448 15.8778 21.1076 15.6929 21.0358 15.5204L20.6666 15.6743C20.7182 15.7982 20.7449 15.9311 20.7452 16.0654L21.1452 16.0646ZM13.449 5.11404C13.5488 5.01438 13.6841 4.95841 13.8252 4.95841V4.55841C13.5782 4.55841 13.3412 4.65643 13.1664 4.83095L13.449 5.11404ZM10.8742 7.69135L13.4492 5.11385L13.1662 4.83115L10.5912 7.40865L10.8742 7.69135ZM14.5366 11.0711L10.8741 7.40858L10.5913 7.69142L14.2538 11.3539L14.5366 11.0711ZM16.8287 8.49365L14.2537 11.0711L14.5367 11.3539L17.1117 8.77635L16.8287 8.49365ZM16.9447 8.32094C16.9179 8.38542 16.8786 8.44397 16.8291 8.49322L17.1113 8.77678C17.1981 8.69036 17.267 8.58763 17.3141 8.47449L16.9447 8.32094ZM16.9853 8.1175C16.9853 8.18733 16.9715 8.25646 16.9447 8.32094L17.3141 8.47449C17.3611 8.36135 17.3853 8.24003 17.3853 8.1175H16.9853ZM16.9447 7.91405C16.9715 7.97853 16.9853 8.04767 16.9853 8.1175H17.3853C17.3853 7.99497 17.3611 7.87365 17.3141 7.76051L16.9447 7.91405ZM16.8291 7.74178C16.8786 7.79103 16.9179 7.84958 16.9447 7.91405L17.3141 7.76051C17.267 7.64737 17.1981 7.54464 17.1113 7.45822L16.8291 7.74178ZM14.2013 5.11392L16.8288 7.74142L17.1116 7.45858L14.4841 4.83108L14.2013 5.11392ZM13.8252 4.95841C13.9663 4.95841 14.1016 5.01438 14.2014 5.11405L14.484 4.83095C14.3092 4.65643 14.0722 4.55841 13.8252 4.55841V4.95841ZM7.35019 17.92V11.54H6.95019V17.92H7.35019ZM7.28903 18.5531C7.32952 18.3446 7.35 18.1326 7.35019 17.9202L6.95019 17.9198C6.95002 18.1068 6.93199 18.2933 6.89636 18.4769L7.28903 18.5531ZM10.4688 14.8585L6.95132 18.3735L7.23407 18.6565L10.7516 15.1415L10.4688 14.8585ZM7.00877 11.6814L10.4688 15.1414L10.7516 14.8586L7.29162 11.3986L7.00877 11.6814ZM4.03348 20.3002C3.39762 20.2738 2.7969 20.0013 2.35824 19.5402L2.06844 19.8159C2.57864 20.3522 3.27733 20.6692 4.01691 20.6998L4.03348 20.3002ZM4.95263 20.1334C4.65883 20.2495 4.34491 20.3061 4.02906 20.3L4.02132 20.7C4.39008 20.7071 4.7566 20.641 5.09962 20.5054L4.95263 20.1334ZM5.74063 19.6237C5.51427 19.8441 5.24643 20.0173 4.95263 20.1334L5.09962 20.5054C5.44264 20.3699 5.75536 20.1676 6.01964 19.9104L5.74063 19.6237ZM6.27132 18.8497C6.14737 19.1403 5.96699 19.4034 5.74063 19.6237L6.01964 19.9104C6.28393 19.6531 6.49453 19.3459 6.63925 19.0067L6.27132 18.8497ZM6.4627 17.931C6.46032 18.2469 6.39527 18.5592 6.27132 18.8497L6.63925 19.0067C6.78396 18.6674 6.85991 18.3028 6.86269 17.934L6.4627 17.931ZM6.46269 2.2325V17.9325H6.86269V2.2325H6.46269ZM6.42216 2.02872C6.44892 2.09333 6.46269 2.16257 6.46269 2.2325H6.86269C6.86269 2.11004 6.83857 1.98878 6.79171 1.87565L6.42216 2.02872ZM6.30673 1.85597C6.35618 1.90541 6.3954 1.96412 6.42216 2.02872L6.79171 1.87565C6.74485 1.76251 6.67616 1.65971 6.58957 1.57312L6.30673 1.85597ZM6.13397 1.74053C6.19858 1.76729 6.25728 1.80652 6.30673 1.85597L6.58957 1.57312C6.50298 1.48653 6.40018 1.41784 6.28705 1.37098L6.13397 1.74053ZM5.93019 1.7C6.00012 1.7 6.06937 1.71377 6.13397 1.74053L6.28705 1.37098C6.17391 1.32412 6.05265 1.3 5.93019 1.3V1.7ZM2.2202 1.7H5.93019V1.3H2.2202V1.7ZM1.8431 1.85145C1.94349 1.75345 2.07851 1.69902 2.2188 1.7L2.22159 1.3C1.97591 1.29829 1.73948 1.39361 1.56368 1.56524L1.8431 1.85145ZM1.68267 2.22341C1.68506 2.08313 1.74271 1.94946 1.8431 1.85145L1.56368 1.56524C1.38787 1.73687 1.28691 1.97094 1.28272 2.21659L1.68267 2.22341ZM1.6827 17.8275V2.22H1.2827V17.8275H1.6827ZM2.35824 19.5402C1.91959 19.0791 1.67734 18.4656 1.68269 17.8292L1.2827 17.8258C1.27649 18.566 1.55824 19.2796 2.06844 19.8159L2.35824 19.5402ZM10.7252 20.3H5.72519V20.7H10.7252V20.3ZM10.5202 15.5727L10.5252 20.5002L10.9252 20.4998L10.9202 15.5723L10.5202 15.5727ZM6.6714 19.8916L10.8614 15.7141L10.579 15.4309L6.38899 19.6084L6.6714 19.8916ZM6.36748 20.2456C6.48376 20.1278 6.59172 20.0022 6.69058 19.8695L6.36981 19.6305C6.28203 19.7483 6.18617 19.8599 6.08291 19.9644L6.36748 20.2456ZM5.83319 20.6683C6.02342 20.5463 6.2012 20.4058 6.36396 20.249L6.08643 19.961C5.94254 20.0996 5.78537 20.2238 5.6172 20.3317L5.83319 20.6683ZM7.43434 11.1412L10.5293 8.03619L10.246 7.75381L7.15105 10.8588L7.43434 11.1412ZM11.0964 14.5109L7.43392 10.8584L7.15147 11.1416L10.814 14.7941L11.0964 14.5109ZM13.9088 11.4161L10.8138 14.5111L11.0966 14.7939L14.1916 11.6989L13.9088 11.4161ZM10.2463 8.03642L13.9088 11.6989L14.1916 11.4161L10.5291 7.75358L10.2463 8.03642ZM15.5902 20.3125H11.2202V20.7125H15.5902V20.3125ZM15.3902 15.3325V20.5125H15.7902V15.3325H15.3902ZM11.2202 15.5325H15.5902V15.1325H11.2202V15.5325ZM11.4202 20.5125V15.3325H11.0202V20.5125H11.4202ZM20.2702 19.7801C20.2702 19.8511 20.256 19.9214 20.2285 19.9868L20.5971 20.142C20.6454 20.0274 20.6702 19.9043 20.6702 19.7799L20.2702 19.7801ZM20.2702 16.065V19.78H20.6702V16.065H20.2702ZM20.2285 15.8582C20.256 15.9236 20.2702 15.9939 20.2702 16.0649L20.6702 16.0651C20.6702 15.9407 20.6454 15.8176 20.5971 15.703L20.2285 15.8582ZM20.1098 15.6838C20.1606 15.7335 20.2009 15.7927 20.2285 15.8582L20.5971 15.703C20.5489 15.5884 20.4782 15.4846 20.3892 15.3977L20.1098 15.6838ZM19.9327 15.5693C19.9987 15.5953 20.059 15.6342 20.1098 15.6838L20.3892 15.3977C20.3003 15.3108 20.1948 15.2426 20.0791 15.197L19.9327 15.5693ZM19.725 15.5324C19.796 15.5307 19.8666 15.5433 19.9327 15.5693L20.0791 15.197C19.9634 15.1515 19.8397 15.1296 19.7154 15.1326L19.725 15.5324ZM16.0777 15.5325H19.7202V15.1325H16.0777V15.5325ZM16.2777 20.5125V15.3325H15.8777V20.5125H16.2777ZM19.7202 20.3125H16.0777V20.7125H19.7202V20.3125ZM19.9327 20.2757C19.8666 20.3017 19.796 20.3143 19.725 20.3126L19.7154 20.7124C19.8397 20.7154 19.9634 20.6935 20.0791 20.648L19.9327 20.2757ZM20.1098 20.1612C20.059 20.2108 19.9987 20.2497 19.9327 20.2757L20.0791 20.648C20.1948 20.6024 20.3003 20.5342 20.3892 20.4473L20.1098 20.1612ZM20.2285 19.9868C20.2009 20.0523 20.1606 20.1115 20.1098 20.1612L20.3892 20.4473C20.4782 20.3604 20.5489 20.2566 20.5971 20.142L20.2285 19.9868ZM4.07269 16.345C3.74783 16.345 3.43024 16.4412 3.15997 16.6215L3.38192 16.9542C3.58647 16.8178 3.82683 16.745 4.0727 16.745L4.07269 16.345ZM4.70461 16.472C4.5045 16.3886 4.28987 16.3454 4.07304 16.345L4.07235 16.745C4.23654 16.7453 4.39906 16.778 4.55058 16.8412L4.70461 16.472ZM5.23918 16.8316C5.08639 16.6777 4.90472 16.5555 4.70461 16.472L4.55058 16.8412C4.70211 16.9044 4.83967 16.9969 4.95537 17.1134L5.23918 16.8316ZM5.59501 17.3686C5.5129 17.1679 5.39198 16.9854 5.23918 16.8316L4.95537 17.1134C5.07106 17.2299 5.16263 17.3681 5.2248 17.5201L5.59501 17.3686ZM5.71769 18.001C5.71882 17.7842 5.67712 17.5693 5.59501 17.3686L5.2248 17.5201C5.28698 17.6721 5.31855 17.8348 5.3177 17.999L5.71769 18.001ZM5.43494 18.9122C5.61706 18.6432 5.71544 18.3263 5.71769 18.0014L5.3177 17.9986C5.316 18.2445 5.24154 18.4843 5.1037 18.6879L5.43494 18.9122ZM4.69436 19.513C4.99513 19.3903 5.25282 19.1812 5.43494 18.9122L5.1037 18.6879C4.96587 18.8916 4.77084 19.0498 4.5432 19.1427L4.69436 19.513ZM3.74485 19.602C4.06319 19.6668 4.39358 19.6358 4.69435 19.513L4.5432 19.1427C4.31556 19.2356 4.06551 19.259 3.82457 19.21L3.74485 19.602ZM2.90553 19.1492C3.13445 19.3797 3.4265 19.5373 3.74485 19.602L3.82457 19.21C3.58364 19.161 3.36261 19.0418 3.18935 18.8673L2.90553 19.1492ZM2.45851 18.3068C2.52107 18.6256 2.67661 18.9187 2.90553 19.1492L3.18935 18.8673C3.01609 18.6929 2.89837 18.471 2.85103 18.2297L2.45851 18.3068ZM2.55403 17.3579C2.42919 17.6578 2.39596 17.988 2.45851 18.3068L2.85103 18.2297C2.80368 17.9885 2.82884 17.7386 2.92332 17.5116L2.55403 17.3579ZM3.15997 16.6215C2.8897 16.8017 2.67886 17.058 2.55403 17.3579L2.92332 17.5116C3.0178 17.2846 3.17737 17.0907 3.38192 16.9542L3.15997 16.6215ZM4.07271 18.745C3.92247 18.745 3.77563 18.7003 3.65086 18.6166L3.42806 18.9488C3.61873 19.0767 3.84311 19.145 4.07268 19.145L4.07271 18.745ZM4.60559 18.5274C4.4638 18.6673 4.27245 18.7455 4.07323 18.745L4.07216 19.145C4.37692 19.1458 4.66966 19.0262 4.88657 18.8121L4.60559 18.5274ZM4.8302 17.9979C4.82812 18.1971 4.74738 18.3874 4.60559 18.5274L4.88657 18.8121C5.10348 18.598 5.22699 18.3069 5.23018 18.0021L4.8302 17.9979ZM4.70738 17.5739C4.78942 17.6998 4.83217 17.8472 4.83021 17.9974L5.23018 18.0026C5.23317 17.7731 5.16784 17.5478 5.04249 17.3555L4.70738 17.5739ZM4.36951 17.2906C4.50774 17.3494 4.62535 17.448 4.70738 17.5739L5.04249 17.3555C4.91714 17.1632 4.73743 17.0124 4.5262 16.9225L4.36951 17.2906ZM3.93109 17.2434C4.07867 17.2153 4.23128 17.2317 4.36951 17.2906L4.5262 16.9225C4.31498 16.8326 4.08178 16.8075 3.85626 16.8504L3.93109 17.2434ZM3.54067 17.4484C3.6476 17.3428 3.7835 17.2715 3.93109 17.2434L3.85626 16.8504C3.63075 16.8934 3.42309 17.0024 3.25969 17.1637L3.54067 17.4484ZM3.33057 17.8361C3.36061 17.6889 3.43374 17.5539 3.54067 17.4484L3.25969 17.1637C3.0963 17.3249 2.98455 17.5311 2.93865 17.7561L3.33057 17.8361ZM3.37198 18.2751C3.31494 18.1361 3.30053 17.9833 3.33057 17.8361L2.93865 17.7561C2.89275 17.981 2.91477 18.2145 3.00192 18.4269L3.37198 18.2751ZM3.65086 18.6166C3.52608 18.5329 3.42901 18.4141 3.37198 18.2751L3.00192 18.4269C3.08906 18.6393 3.2374 18.821 3.42806 18.9488L3.65086 18.6166Z" fill="white"/>
</svg>
