<svg width="120" height="120" viewBox="0 0 120 120" fill="none" xmlns="http://www.w3.org/2000/svg">
<path d="M106.617 12H13.3828C11.4248 12 9.54692 12.7778 8.16238 14.1624C6.77783 15.5469 6 17.4248 6 19.3828L6 24.6562H114V19.3828C114 17.4248 113.222 15.5469 111.838 14.1624C110.453 12.7778 108.575 12 106.617 12Z" fill="white"/>
<path d="M6 103.969C6 104.808 6.33336 105.613 6.92673 106.206C7.52011 106.799 8.3249 107.133 9.16406 107.133H110.836C111.675 107.133 112.48 106.799 113.073 106.206C113.667 105.613 114 104.808 114 103.969V30.9844H6V103.969ZM60 38.4727C65.6723 38.4775 71.2318 40.0578 76.0584 43.0375C80.8851 46.0171 84.7892 50.2789 87.3354 55.3477H97.9688C98.8079 55.3477 99.6127 55.681 100.206 56.2744C100.799 56.8678 101.133 57.6726 101.133 58.5117C101.133 59.3509 100.799 60.1557 100.206 60.749C99.6127 61.3424 98.8079 61.6758 97.9688 61.6758H89.6831C90.8869 66.5241 90.8869 71.5931 89.6831 76.4414H97.9688C98.8079 76.4414 99.6127 76.7748 100.206 77.3681C100.799 77.9615 101.133 78.7663 101.133 79.6055C101.133 80.4446 100.799 81.2494 100.206 81.8428C99.6127 82.4362 98.8079 82.7695 97.9688 82.7695H87.3354C84.7892 87.8382 80.8851 92.1001 76.0584 95.0797C71.2318 98.0593 65.6723 99.6397 60 99.6445C43.1355 99.6445 29.4141 85.923 29.4141 69.0586C29.4141 52.1941 43.1355 38.4727 60 38.4727Z" fill="#383838"/>
<path d="M60 93.3164C64.7977 93.3164 69.4877 91.8937 73.4769 89.2282C77.4661 86.5628 80.5753 82.7742 82.4113 78.3417C84.2473 73.9091 84.7277 69.0317 83.7917 64.3261C82.8557 59.6206 80.5454 55.2983 77.1529 51.9057C73.7603 48.5132 69.438 46.2029 64.7325 45.2669C60.0269 44.3309 55.1495 44.8113 50.7169 46.6473C46.2844 48.4833 42.4958 51.5925 39.8304 55.5817C37.1649 59.5709 35.7422 64.2609 35.7422 69.0586C35.7494 75.49 38.3075 81.6558 42.8552 86.2035C47.4028 90.7511 53.5687 93.3092 60 93.3164ZM61.0547 84.5372H58.9453C58.1062 84.5372 57.3014 84.2038 56.708 83.6105C56.1146 83.0171 55.7812 82.2123 55.7812 81.3731C55.7812 80.534 56.1146 79.7292 56.708 79.1358C57.3014 78.5424 58.1062 78.2091 58.9453 78.2091H61.0547C61.8938 78.2091 62.6986 78.5424 63.292 79.1358C63.8854 79.7292 64.2188 80.534 64.2188 81.3731C64.2188 82.2123 63.8854 83.0171 63.292 83.6105C62.6986 84.2038 61.8938 84.5372 61.0547 84.5372ZM71.1354 74.9311C70.8468 75.23 70.5021 75.4691 70.121 75.6348C69.74 75.8005 69.33 75.8895 68.9146 75.8967C68.4991 75.904 68.0863 75.8293 67.6997 75.677C67.3131 75.5247 66.9603 75.2978 66.6614 75.0092C64.8637 73.302 62.4792 72.3501 60 72.3501C57.5208 72.3501 55.1363 73.302 53.3386 75.0092C52.735 75.5921 51.9245 75.9114 51.0854 75.8967C50.2464 75.8821 49.4475 75.5347 48.8646 74.9311C48.2817 74.3275 47.9624 73.517 47.977 72.6779C47.9917 71.8389 48.339 71.0401 48.9427 70.4571C55.0387 64.5699 64.9613 64.5699 71.0573 70.4571C71.3562 70.7458 71.5953 71.0904 71.761 71.4715C71.9267 71.8525 72.0157 72.2625 72.023 72.6779C72.0302 73.0934 71.9556 73.5062 71.8033 73.8928C71.651 74.2794 71.424 74.6322 71.1354 74.9311ZM43.0364 60.3764C52.3894 51.3441 67.6106 51.3441 76.9636 60.3764C77.2626 60.6651 77.5019 61.0098 77.6677 61.3909C77.8335 61.772 77.9226 62.182 77.93 62.5976C77.9373 63.0131 77.8627 63.426 77.7105 63.8127C77.5583 64.1995 77.3313 64.5524 77.0427 64.8515C76.7541 65.1505 76.4093 65.3897 76.0282 65.5555C75.6471 65.7214 75.2371 65.8105 74.8216 65.8178C74.406 65.8252 73.9931 65.7506 73.6064 65.5984C73.2196 65.4461 72.8667 65.2192 72.5677 64.9306C65.6384 58.2375 54.3616 58.2375 47.4323 64.9306C46.8284 65.5135 46.0177 65.8327 45.1784 65.8178C44.3392 65.803 43.5402 65.4554 42.9573 64.8515C42.3744 64.2475 42.0552 63.4368 42.07 62.5976C42.0849 61.7583 42.4325 60.9594 43.0364 60.3764Z" fill="white"/>
</svg>
